<svg width="24" height="25" viewBox="0 0 24 25" fill="none" xmlns="http://www.w3.org/2000/svg">
<path d="M11.4996 11.4094C13.4076 11.4094 14.9544 9.86271 14.9544 7.95472C14.9544 6.04673 13.4076 4.5 11.4996 4.5C9.59165 4.5 8.04492 6.04673 8.04492 7.95472C8.04492 9.86271 9.59165 11.4094 11.4996 11.4094Z" stroke="#8E9BAE" stroke-width="1.5"/>
<path d="M16.6837 10.5459C18.1148 10.5459 19.2748 9.57862 19.2748 8.38674C19.2748 7.19486 18.1148 6.22754 16.6837 6.22754M6.31956 10.5459C4.88844 10.5459 3.72852 9.57862 3.72852 8.38674C3.72852 7.19486 4.88844 6.22754 6.31956 6.22754" stroke="#8E9BAE" stroke-width="1.5" stroke-linecap="round"/>
<path d="M11.5014 20.9104C14.3634 20.9104 16.6835 19.3637 16.6835 17.4557C16.6835 15.5477 14.3634 14.001 11.5014 14.001C8.63943 14.001 6.31934 15.5477 6.31934 17.4557C6.31934 19.3637 8.63943 20.9104 11.5014 20.9104Z" stroke="#8E9BAE" stroke-width="1.5"/>
<path d="M18.4099 19.1827C19.9248 18.8501 21.001 18.0089 21.001 17.0235C21.001 16.038 19.9248 15.1968 18.4099 14.8643M4.59104 19.1827C3.07615 18.8501 2 18.0089 2 17.0235C2 16.038 3.07615 15.1968 4.59104 14.8643" stroke="#8E9BAE" stroke-width="1.5" stroke-linecap="round"/>
</svg>
