<svg width="156" height="38" viewBox="0 0 156 38" fill="none" xmlns="http://www.w3.org/2000/svg">
<rect y="0.5" width="37" height="37" rx="14" fill="#6F2FCE"/>
<path d="M18.5 9.25C16.5716 9.25 14.6866 9.82183 13.0832 10.8932C11.4798 11.9645 10.2301 13.4873 9.49218 15.2688C8.75422 17.0504 8.56114 19.0108 8.93735 20.9021C9.31355 22.7934 10.2422 24.5307 11.6057 25.8943C12.9693 27.2579 14.7066 28.1865 16.5979 28.5627C18.4892 28.9389 20.4496 28.7458 22.2312 28.0078C24.0127 27.2699 25.5355 26.0202 26.6068 24.4168C27.6782 22.8134 28.25 20.9284 28.25 19C28.2473 16.415 27.2192 13.9366 25.3913 12.1087C23.5634 10.2808 21.085 9.25273 18.5 9.25ZM18.5 10.75C19.2641 10.75 20.75 13.6619 20.75 19C20.75 19.7725 20.7181 20.4925 20.6628 21.1628C19.9925 21.2181 19.2725 21.25 18.5 21.25C13.1619 21.25 10.25 19.7641 10.25 19C10.2525 16.8127 11.1225 14.7157 12.6691 13.1691C14.2158 11.6225 16.3127 10.7525 18.5 10.75ZM10.5688 21.2744C12.4325 22.2484 15.4775 22.75 18.5 22.75C19.1647 22.75 19.8303 22.7256 20.4847 22.6778C20.0216 25.6562 19.0625 27.25 18.5 27.25C16.7091 27.2476 14.9674 26.6636 13.537 25.5859C12.1067 24.5083 11.065 22.9952 10.5688 21.2744Z" fill="white"/>
<path d="M54.5698 29.2888C53.5109 29.2888 52.4905 29.1925 51.5087 29C50.5461 28.8267 49.6509 28.5668 48.823 28.2203C48.0145 27.8738 47.2925 27.4598 46.6572 26.9785L47.7834 24.0619C48.4187 24.5047 49.0829 24.8897 49.776 25.217C50.4883 25.525 51.2392 25.7657 52.0285 25.9389C52.8371 26.0929 53.6842 26.17 54.5698 26.17C56.0907 26.17 57.1977 25.9197 57.8907 25.4191C58.5838 24.8993 58.9304 24.2351 58.9304 23.4265C58.9304 22.9837 58.8245 22.6083 58.6127 22.3003C58.4009 21.973 58.0544 21.6939 57.5731 21.4628C57.0918 21.2318 56.4565 21.0393 55.6671 20.8853L52.4905 20.2211C50.6616 19.836 49.2947 19.1911 48.3899 18.2862C47.5043 17.3621 47.0615 16.1493 47.0615 14.6476C47.0615 13.377 47.3984 12.27 48.0722 11.3266C48.746 10.3833 49.6798 9.65171 50.8734 9.1319C52.067 8.6121 53.4435 8.35219 55.0029 8.35219C55.927 8.35219 56.8126 8.44845 57.6597 8.64097C58.5261 8.81424 59.3154 9.08377 60.0277 9.44956C60.7593 9.7961 61.3946 10.2196 61.9337 10.7202L60.8074 13.4925C59.9988 12.8187 59.1132 12.3181 58.1506 11.9908C57.188 11.6443 56.1292 11.471 54.9741 11.471C54.0885 11.471 53.328 11.5962 52.6927 11.8464C52.0574 12.0967 51.5665 12.4529 51.2199 12.9149C50.8926 13.3577 50.729 13.8872 50.729 14.5032C50.729 15.1963 50.96 15.7546 51.4221 16.1781C51.8841 16.5824 52.6734 16.9001 53.7901 17.1311L56.9378 17.7953C58.8437 18.1996 60.2587 18.8349 61.1828 19.7013C62.1262 20.5676 62.5979 21.7227 62.5979 23.1666C62.5979 24.3795 62.2706 25.448 61.616 26.3721C60.9614 27.2962 60.0277 28.0181 58.8148 28.538C57.6212 29.0385 56.2062 29.2888 54.5698 29.2888ZM66.0014 34.198V14.8786H69.5245V17.8531H69.2358C69.5245 16.8712 70.1117 16.0819 70.9973 15.4851C71.9022 14.8883 72.9514 14.5899 74.145 14.5899C75.3772 14.5899 76.4553 14.8883 77.3794 15.4851C78.3227 16.0819 79.0543 16.929 79.5741 18.0263C80.0939 19.1045 80.3538 20.404 80.3538 21.9249C80.3538 23.4265 80.0939 24.7357 79.5741 25.8523C79.0543 26.9497 78.3323 27.7967 77.4082 28.3936C76.4841 28.9904 75.3964 29.2888 74.145 29.2888C72.9707 29.2888 71.9407 29 71.0551 28.4224C70.1695 27.8256 69.5727 27.0555 69.2646 26.1122H69.6112V34.198H66.0014ZM73.1343 26.5454C74.2124 26.5454 75.0787 26.1603 75.7333 25.3902C76.3879 24.6009 76.7152 23.4458 76.7152 21.9249C76.7152 20.3847 76.3879 19.2392 75.7333 18.4884C75.0787 17.7183 74.2124 17.3333 73.1343 17.3333C72.0562 17.3333 71.1898 17.7183 70.5353 18.4884C69.8807 19.2392 69.5534 20.3847 69.5534 21.9249C69.5534 23.4458 69.8807 24.6009 70.5353 25.3902C71.1898 26.1603 72.0562 26.5454 73.1343 26.5454ZM83.8945 29V8.64097H87.5043V17.7087H87.1C87.5235 16.6883 88.1781 15.9182 89.0637 15.3984C89.9685 14.8594 90.9889 14.5899 92.1248 14.5899C93.2606 14.5899 94.1944 14.8016 94.9259 15.2252C95.6575 15.6487 96.2062 16.2937 96.572 17.16C96.9378 18.0071 97.1207 19.0852 97.1207 20.3943V29H93.5109V20.5676C93.5109 19.836 93.4147 19.2392 93.2221 18.7772C93.0489 18.3151 92.7697 17.9782 92.3847 17.7664C92.0189 17.5354 91.5472 17.4199 90.9696 17.4199C90.2766 17.4199 89.6701 17.5739 89.1503 17.882C88.6305 18.1707 88.2262 18.5943 87.9375 19.1526C87.6487 19.6916 87.5043 20.327 87.5043 21.0585V29H83.8945ZM108.324 29.2888C106.726 29.2888 105.35 28.9904 104.195 28.3936C103.04 27.7967 102.144 26.9497 101.509 25.8523C100.893 24.7549 100.585 23.4554 100.585 21.9538C100.585 20.4906 100.883 19.2103 101.48 18.113C102.096 17.0156 102.934 16.1589 103.993 15.5428C105.071 14.9075 106.293 14.5899 107.66 14.5899C109.008 14.5899 110.163 14.8786 111.125 15.4562C112.088 16.0338 112.829 16.852 113.349 17.9108C113.888 18.9697 114.158 20.2307 114.158 21.6939V22.7623H103.502V20.6831H111.616L111.154 21.1163C111.154 19.8072 110.865 18.806 110.288 18.113C109.71 17.4006 108.883 17.0445 107.804 17.0445C106.996 17.0445 106.303 17.237 105.725 17.622C105.167 17.9878 104.734 18.5173 104.426 19.2103C104.137 19.8842 103.993 20.6927 103.993 21.6361V21.8382C103.993 22.8971 104.156 23.7731 104.483 24.4661C104.811 25.1592 105.302 25.679 105.956 26.0256C106.611 26.3721 107.419 26.5454 108.382 26.5454C109.171 26.5454 109.961 26.4299 110.75 26.1988C111.539 25.9486 112.261 25.5635 112.916 25.0437L113.927 27.4695C113.253 28.0278 112.406 28.4706 111.385 28.7979C110.365 29.1251 109.345 29.2888 108.324 29.2888ZM117.594 29V14.8786H121.117V18.2862H120.828C121.098 17.1311 121.627 16.2552 122.416 15.6583C123.206 15.0423 124.255 14.6861 125.564 14.5899L126.662 14.5032L126.893 17.5643L124.813 17.7664C123.639 17.882 122.753 18.2477 122.157 18.8638C121.56 19.4606 121.261 20.3077 121.261 21.4051V29H117.594ZM129.48 29V14.8786H133.003V18.2862H132.714C132.984 17.1311 133.513 16.2552 134.303 15.6583C135.092 15.0423 136.141 14.6861 137.45 14.5899L138.548 14.5032L138.779 17.5643L136.7 17.7664C135.525 17.882 134.64 18.2477 134.043 18.8638C133.446 19.4606 133.148 20.3077 133.148 21.4051V29H129.48ZM148.1 29.2888C146.502 29.2888 145.126 28.9904 143.971 28.3936C142.816 27.7967 141.92 26.9497 141.285 25.8523C140.669 24.7549 140.361 23.4554 140.361 21.9538C140.361 20.4906 140.659 19.2103 141.256 18.113C141.872 17.0156 142.71 16.1589 143.769 15.5428C144.847 14.9075 146.069 14.5899 147.436 14.5899C148.784 14.5899 149.939 14.8786 150.902 15.4562C151.864 16.0338 152.605 16.852 153.125 17.9108C153.664 18.9697 153.934 20.2307 153.934 21.6939V22.7623H143.278V20.6831H151.392L150.93 21.1163C150.93 19.8072 150.642 18.806 150.064 18.113C149.487 17.4006 148.659 17.0445 147.581 17.0445C146.772 17.0445 146.079 17.237 145.501 17.622C144.943 17.9878 144.51 18.5173 144.202 19.2103C143.913 19.8842 143.769 20.6927 143.769 21.6361V21.8382C143.769 22.8971 143.932 23.7731 144.26 24.4661C144.587 25.1592 145.078 25.679 145.732 26.0256C146.387 26.3721 147.196 26.5454 148.158 26.5454C148.947 26.5454 149.737 26.4299 150.526 26.1988C151.315 25.9486 152.037 25.5635 152.692 25.0437L153.703 27.4695C153.029 28.0278 152.182 28.4706 151.161 28.7979C150.141 29.1251 149.121 29.2888 148.1 29.2888Z" fill="white"/>
</svg>
