<svg width="20" height="20" viewBox="0 0 20 20" fill="none" xmlns="http://www.w3.org/2000/svg">
<path d="M10 0.25C8.07164 0.25 6.18657 0.821828 4.58319 1.89317C2.97982 2.96452 1.73013 4.48726 0.992179 6.26884C0.254224 8.05042 0.061142 10.0108 0.437348 11.9021C0.813554 13.7934 1.74215 15.5307 3.10571 16.8943C4.46927 18.2579 6.20656 19.1865 8.09787 19.5627C9.98919 19.9389 11.9496 19.7458 13.7312 19.0078C15.5127 18.2699 17.0355 17.0202 18.1068 15.4168C19.1782 13.8134 19.75 11.9284 19.75 10C19.7473 7.41498 18.7192 4.93661 16.8913 3.10872C15.0634 1.28084 12.585 0.25273 10 0.25ZM10 1.75C10.7641 1.75 12.25 4.66188 12.25 10C12.25 10.7725 12.2181 11.4925 12.1628 12.1628C11.4925 12.2181 10.7725 12.25 10 12.25C4.66188 12.25 1.75 10.7641 1.75 10C1.75249 7.81273 2.62248 5.71575 4.16911 4.16911C5.71575 2.62247 7.81273 1.75248 10 1.75ZM2.06875 12.2744C3.9325 13.2484 6.9775 13.75 10 13.75C10.6647 13.75 11.3303 13.7256 11.9847 13.6778C11.5216 16.6562 10.5625 18.25 10 18.25C8.20909 18.2476 6.4674 17.6636 5.03703 16.5859C3.60665 15.5083 2.56498 13.9952 2.06875 12.2744Z" fill="#8E9BAE"/>
</svg>
