<svg width="27" height="28" viewBox="0 0 27 28" fill="none" xmlns="http://www.w3.org/2000/svg">
<path fill-rule="evenodd" clip-rule="evenodd" d="M0.375 14C0.375 15.7236 0.714488 17.4303 1.37408 19.0227C2.03367 20.6151 3.00045 22.062 4.21922 23.2808C5.43799 24.4995 6.88488 25.4663 8.47728 26.1259C10.0697 26.7855 11.7764 27.125 13.5 27.125C15.2236 27.125 16.9303 26.7855 18.5227 26.1259C20.1151 25.4663 21.562 24.4995 22.7808 23.2808C23.9995 22.062 24.9663 20.6151 25.6259 19.0227C26.2855 17.4303 26.625 15.7236 26.625 14C26.625 10.519 25.2422 7.18064 22.7808 4.71922C20.3194 2.25781 16.981 0.875 13.5 0.875C10.019 0.875 6.68064 2.25781 4.21922 4.71922C1.75781 7.18064 0.375 10.519 0.375 14Z" fill="#0C0C4F"/>
<path fill-rule="evenodd" clip-rule="evenodd" d="M7.7086 10.9086L8.03235 9.90815C8.06515 9.80823 8.12149 9.71765 8.19661 9.64405C8.27173 9.57045 8.36344 9.51598 8.46402 9.48524L9.47027 9.17461C9.50069 9.16527 9.5273 9.14641 9.54621 9.12082C9.56512 9.09523 9.57532 9.06424 9.57532 9.03242C9.57532 9.0006 9.56512 8.96962 9.54621 8.94403C9.5273 8.91844 9.50069 8.89958 9.47027 8.89024L8.46985 8.56649C8.37009 8.53383 8.27962 8.47772 8.20603 8.40286C8.13244 8.328 8.07788 8.23658 8.04694 8.13628L7.73631 7.13003C7.69402 6.99149 7.49714 6.99003 7.45339 7.12857L7.12964 8.12899C7.09705 8.22918 7.0408 8.32005 6.96566 8.39392C6.89053 8.46778 6.79871 8.52247 6.69798 8.55336L5.69173 8.86253C5.66126 8.87172 5.63455 8.89044 5.61551 8.91593C5.59647 8.94143 5.5861 8.97236 5.58594 9.00418C5.58578 9.036 5.59582 9.06703 5.6146 9.09272C5.63338 9.11841 5.6599 9.1374 5.69027 9.1469L6.69069 9.47065C6.79115 9.50305 6.88232 9.55921 6.95645 9.63436C7.03058 9.7095 7.08549 9.80142 7.11652 9.90232L7.42423 10.9071C7.46798 11.0457 7.6634 11.0471 7.7086 10.9086Z" fill="#FAFAFA"/>
<path fill-rule="evenodd" clip-rule="evenodd" d="M23.6069 10.3265C23.1928 9.86278 22.5453 9.60173 21.9153 9.49528C21.2771 9.39446 20.6265 9.40037 19.9903 9.51278C18.7244 9.72715 17.5738 10.2522 16.569 10.8982C16.0484 11.2161 15.6036 11.5836 15.1428 11.9584C14.9211 12.148 14.7198 12.3492 14.5084 12.5476L13.9323 13.1207C13.3518 13.7344 12.7384 14.3162 12.0948 14.8634C11.4955 15.3549 10.9355 15.7282 10.3828 15.9878C9.83151 16.2503 9.24089 16.4049 8.47234 16.4297C7.70964 16.4559 6.80693 16.3188 5.84297 16.0913C4.87318 15.8653 3.8538 15.543 2.71484 15.2659C3.11352 16.3558 3.71194 17.3617 4.47943 18.2322C5.25526 19.1072 6.22651 19.9034 7.47193 20.4284C8.80185 20.9908 10.2694 21.1431 11.6865 20.8659C13.1346 20.5874 14.4048 19.918 15.4315 19.1436C16.4006 18.3978 17.2632 17.5229 17.9953 16.5434C18.1892 16.2867 18.2913 16.1438 18.4313 15.944L18.8192 15.3694C19.0876 15.0136 19.334 14.6111 19.5994 14.2582C20.123 13.5217 20.6378 12.7853 21.2371 12.1072C21.5376 11.763 21.8555 11.4349 22.2303 11.1184C22.4184 10.9638 22.6211 10.8122 22.8442 10.6765C23.0717 10.5307 23.3109 10.414 23.6069 10.3265Z" fill="url(#paint0_linear_11909_2309)"/>
<path fill-rule="evenodd" clip-rule="evenodd" d="M23.6069 10.3252C23.1621 9.20229 22.3338 8.25583 21.2226 7.55729C19.9762 6.80118 18.4929 6.53653 17.0619 6.815C16.3109 6.96083 15.5832 7.24083 14.9444 7.61271C14.3272 7.97427 13.7566 8.41017 13.2455 8.91063C13.0056 9.14906 12.775 9.39667 12.5542 9.65292L11.9782 10.3865L11.0886 11.5677C9.95693 13.0873 8.7363 14.8679 6.73401 15.3958C4.76818 15.9135 3.91505 15.4542 2.71484 15.2646C2.93359 15.8319 3.2063 16.3817 3.57526 16.8658C3.93693 17.3588 4.36276 17.8225 4.89505 18.2206C5.16339 18.4102 5.4463 18.5998 5.7613 18.7602C6.07339 18.9133 6.41172 19.0504 6.77193 19.1525C7.52208 19.3592 8.306 19.4138 9.07755 19.3129C9.83776 19.2067 10.5753 18.9761 11.2607 18.6304C11.8835 18.3172 12.4687 17.9341 13.0048 17.4885C13.947 16.694 14.7801 15.7785 15.4826 14.7658C15.817 14.2924 16.1252 13.814 16.4071 13.3308L16.7382 12.7592C16.8403 12.59 16.9433 12.4257 17.0473 12.2663C17.4688 11.6363 17.8801 11.1317 18.3803 10.751C18.8746 10.3631 19.5615 10.0758 20.4788 10.0073C21.3932 9.94021 22.4476 10.0656 23.6069 10.3267" fill="#FAFAFA"/>
<path fill-rule="evenodd" clip-rule="evenodd" d="M18.6648 19.6663C18.6585 19.8667 18.6926 20.0662 18.7649 20.2531C18.8373 20.44 18.9464 20.6105 19.0859 20.7544C19.2254 20.8983 19.3924 21.0127 19.577 21.0909C19.7615 21.169 19.9599 21.2093 20.1603 21.2093C20.3607 21.2093 20.5591 21.169 20.7437 21.0909C20.9282 21.0127 21.0952 20.8983 21.2347 20.7544C21.3742 20.6105 21.4834 20.44 21.5557 20.2531C21.628 20.0662 21.6621 19.8667 21.6558 19.6663C21.6437 19.2778 21.4808 18.9092 21.2017 18.6387C20.9225 18.3681 20.5491 18.2168 20.1603 18.2168C19.7716 18.2168 19.3981 18.3681 19.1189 18.6387C18.8398 18.9092 18.6769 19.2778 18.6648 19.6663Z" fill="#EC796B"/>
<defs>
<linearGradient id="paint0_linear_11909_2309" x1="26.4828" y1="2.03007" x2="-23.8443" y2="16.5405" gradientUnits="userSpaceOnUse">
<stop stop-color="#EC796B"/>
<stop offset="1" stop-color="#D672EF"/>
</linearGradient>
</defs>
</svg>
