<svg width="26" height="26" viewBox="0 0 26 26" fill="none" xmlns="http://www.w3.org/2000/svg">
<path d="M8.9375 8.92937C8.9375 9.14486 9.0231 9.35153 9.17548 9.5039C9.32785 9.65627 9.53451 9.74187 9.75 9.74187H10.7266L10.3675 11.375H8.9375C8.72201 11.375 8.51535 11.4606 8.36298 11.613C8.2106 11.7653 8.125 11.972 8.125 12.1875C8.125 12.403 8.2106 12.6097 8.36298 12.762C8.51535 12.9144 8.72201 13 8.9375 13H10.0068L9.776 14.0367C9.72945 14.2473 9.76845 14.4677 9.88441 14.6495C10.0004 14.8312 10.1838 14.9595 10.3943 15.0061C10.6048 15.0526 10.8252 15.0136 11.007 14.8977C11.1888 14.7817 11.3171 14.5983 11.3636 14.3878L11.6708 13H13.2454L13.013 14.0351C12.9897 14.1393 12.9872 14.247 13.0056 14.3521C13.0239 14.4572 13.0628 14.5577 13.12 14.6477C13.1772 14.7378 13.2516 14.8158 13.3389 14.8771C13.4262 14.9384 13.5247 14.982 13.6289 15.0052C13.733 15.0285 13.8407 15.031 13.9458 15.0127C14.0509 14.9943 14.1514 14.9554 14.2415 14.8982C14.3316 14.841 14.4095 14.7667 14.4709 14.6794C14.5322 14.592 14.5757 14.4935 14.599 14.3894L14.9094 13H16.25C16.4655 13 16.6722 12.9144 16.8245 12.762C16.9769 12.6097 17.0625 12.403 17.0625 12.1875C17.0625 11.972 16.9769 11.7653 16.8245 11.613C16.6722 11.4606 16.4655 11.375 16.25 11.375H15.2717L15.6374 9.74187H17.0625C17.278 9.74187 17.4847 9.65627 17.637 9.5039C17.7894 9.35153 17.875 9.14486 17.875 8.92937C17.875 8.71389 17.7894 8.50722 17.637 8.35485C17.4847 8.20248 17.278 8.11687 17.0625 8.11687H15.9997L16.2289 7.08825C16.2521 6.98411 16.2547 6.87641 16.2363 6.7713C16.2179 6.66619 16.179 6.56572 16.1219 6.47564C16.0647 6.38555 15.9903 6.30761 15.903 6.24627C15.8157 6.18493 15.7171 6.14139 15.613 6.11812C15.5089 6.09486 15.4012 6.09234 15.296 6.11071C15.1909 6.12907 15.0905 6.16795 15.0004 6.22514C14.8185 6.34064 14.6899 6.52368 14.6429 6.734L14.3341 8.11687H12.7514L12.9789 7.08663C13.0213 6.87798 12.9801 6.66102 12.8641 6.48244C12.7482 6.30385 12.5668 6.17791 12.359 6.1317C12.1512 6.08549 11.9335 6.1227 11.7528 6.23534C11.5721 6.34798 11.4429 6.52704 11.3929 6.734L11.0874 8.11687H9.75C9.53451 8.11687 9.32785 8.20248 9.17548 8.35485C9.0231 8.50722 8.9375 8.71389 8.9375 8.92937ZM13.6077 11.375H12.0315L12.3923 9.74187H13.9717L13.6077 11.375ZM8.125 1.625H17.875C18.737 1.625 19.5636 1.96741 20.1731 2.5769C20.7826 3.1864 21.125 4.01305 21.125 4.875V20.3076C21.125 20.5231 21.0394 20.7298 20.887 20.8821C20.7347 21.0345 20.528 21.1201 20.3125 21.1201H6.5V21.125C6.5 21.556 6.67121 21.9693 6.97595 22.274C7.2807 22.5788 7.69402 22.75 8.125 22.75H20.3125C20.528 22.75 20.7347 22.8356 20.887 22.988C21.0394 23.1403 21.125 23.347 21.125 23.5625C21.125 23.778 21.0394 23.9847 20.887 24.137C20.7347 24.2894 20.528 24.375 20.3125 24.375H8.125C7.26305 24.375 6.4364 24.0326 5.8269 23.4231C5.21741 22.8136 4.875 21.987 4.875 21.125V4.875C4.875 4.01305 5.21741 3.1864 5.8269 2.5769C6.4364 1.96741 7.26305 1.625 8.125 1.625ZM6.5 4.875V19.4951H19.5V4.875C19.5 4.44402 19.3288 4.0307 19.024 3.72595C18.7193 3.4212 18.306 3.25 17.875 3.25H8.125C7.69402 3.25 7.2807 3.4212 6.97595 3.72595C6.67121 4.0307 6.5 4.44402 6.5 4.875Z" fill="#8E9BAE"/>
</svg>
