<svg width="20" height="21" viewBox="0 0 20 21" fill="none" xmlns="http://www.w3.org/2000/svg">
<path fill-rule="evenodd" clip-rule="evenodd" d="M4.16602 4.23438C3.50297 4.23438 2.86709 4.49777 2.39825 4.96661C1.92941 5.43545 1.66602 6.07133 1.66602 6.73438V7.56771H18.3327V6.73438C18.3327 6.07133 18.0693 5.43545 17.6004 4.96661C17.1316 4.49777 16.4957 4.23438 15.8327 4.23438H4.16602ZM18.3327 9.23438H1.66602V15.0677C1.66602 15.7307 1.92941 16.3666 2.39825 16.8355C2.86709 17.3043 3.50297 17.5677 4.16602 17.5677H15.8327C16.4957 17.5677 17.1316 17.3043 17.6004 16.8355C18.0693 16.3666 18.3327 15.7307 18.3327 15.0677V9.23438ZM6.66602 13.401C6.66602 13.18 6.75381 12.9681 6.91009 12.8118C7.06637 12.6555 7.27834 12.5677 7.49935 12.5677H11.1777L11.0768 12.4669C10.9205 12.3106 10.8326 12.0986 10.8325 11.8776C10.8324 11.6565 10.9202 11.4445 11.0764 11.2881C11.2327 11.1318 11.4447 11.0439 11.6657 11.0438C11.8868 11.0437 12.0988 11.1315 12.2552 11.2877L13.7785 12.8119C13.9347 12.9681 14.0225 13.1801 14.0225 13.401C14.0225 13.622 13.9347 13.8339 13.7785 13.9902L12.2552 15.5135C12.1783 15.5931 12.0864 15.6566 11.9847 15.7003C11.883 15.744 11.7737 15.767 11.663 15.7679C11.5524 15.7689 11.4426 15.7478 11.3402 15.7059C11.2378 15.664 11.1448 15.6021 11.0665 15.5239C10.9883 15.4456 10.9264 15.3526 10.8845 15.2502C10.8426 15.1478 10.8215 15.038 10.8225 14.9274C10.8234 14.8167 10.8464 14.7074 10.8901 14.6057C10.9338 14.504 10.9973 14.4121 11.0768 14.3352L11.1777 14.2344H7.49935C7.27834 14.2344 7.06637 14.1466 6.91009 13.9903C6.75381 13.834 6.66602 13.6221 6.66602 13.401Z" fill="white"/>
</svg>
