<svg width="24" height="25" viewBox="0 0 24 25" fill="none" xmlns="http://www.w3.org/2000/svg">
<path d="M19 20.5V14.5M19 14.5L21 16.5M19 14.5L17 16.5" stroke="white" stroke-width="1.5" stroke-linecap="round" stroke-linejoin="round"/>
<path d="M22 12.5C22 8.729 22 6.843 20.828 5.672C19.656 4.501 17.771 4.5 14 4.5H10C6.229 4.5 4.343 4.5 3.172 5.672C2.001 6.844 2 8.729 2 12.5C2 16.271 2 18.157 3.172 19.328C4.344 20.499 6.229 20.5 10 20.5H14M10 16.5H6M13 16.5H12.5M2 10.5H22" stroke="white" stroke-width="1.5" stroke-linecap="round"/>
</svg>
