<svg width="288" height="225" viewBox="0 0 288 225" fill="none" xmlns="http://www.w3.org/2000/svg">
<g clip-path="url(#clip0_10934_1773)">
<path d="M142.48 77.8679C142.741 78.0417 143.001 78.0417 143.349 77.9548C143.696 77.8679 144.13 77.781 144.564 77.8679C144.912 77.9548 145.172 78.1286 145.259 78.3893C145.259 78.4762 145.259 78.5631 145.259 78.8239C145.172 79.0846 145.085 79.4322 144.912 79.7798C144.825 79.9536 144.738 80.0406 144.651 80.2144C144.564 80.3882 144.477 80.4751 144.391 80.6489L144.304 80.8227L144.217 80.9096L144.13 80.8227C144.043 80.6489 143.87 80.562 143.783 80.3882C143.609 80.1275 143.435 79.9536 143.349 79.7798C143.088 79.4322 143.001 79.0846 143.001 78.737C142.741 78.3893 142.741 78.0417 142.48 77.8679C142.306 77.6941 141.959 77.6941 141.525 78.0417C141.091 78.3893 140.657 79.2584 140.83 80.2144C140.83 80.7358 141.004 81.2572 141.264 81.7787C141.438 82.0394 141.525 82.2132 141.612 82.4739L141.699 82.6477L141.872 82.9085C141.959 83.0823 142.133 83.2561 142.306 83.4299C142.914 84.1251 143.783 84.5597 144.738 84.3859C145.172 84.2989 145.606 84.1251 146.041 83.7775C146.214 83.6037 146.475 83.4299 146.648 83.2561L146.909 82.9954L147.083 82.8215C147.256 82.6477 147.43 82.387 147.604 82.1263C147.777 81.8656 147.864 81.6049 148.038 81.3441C148.385 80.6489 148.559 79.9536 148.646 79.1715C148.732 78.3893 148.472 77.4334 148.038 76.7381C147.083 75.3476 145.346 75.0869 144.391 75.4345C143.349 75.7821 142.914 76.3905 142.654 76.825C142.22 77.3465 142.306 77.6941 142.48 77.8679Z" fill="#6F2FCE"/>
<path d="M89.7692 97.8567C90.0297 98.0305 90.2902 98.0305 90.6376 97.9436C90.9849 97.8567 91.4191 97.7698 91.8533 97.8567C92.2007 97.9436 92.4612 98.1174 92.548 98.3781C92.548 98.465 92.548 98.5519 92.548 98.8126C92.4612 99.0733 92.3744 99.421 92.2007 99.7686C92.1138 99.9424 92.027 100.029 91.9402 100.203C91.8533 100.377 91.7665 100.464 91.6797 100.638L91.5928 100.811L91.506 100.898L91.4191 100.811C91.3323 100.638 91.1586 100.551 91.0718 100.377C90.8981 100.116 90.7244 99.9424 90.6376 99.7686C90.3771 99.421 90.2902 99.0733 90.2902 98.7257C90.0297 98.3781 89.9429 98.0305 89.7692 97.8567C89.5955 97.6828 89.2482 97.6829 88.814 98.0305C88.3798 98.3781 87.9456 99.2472 88.1193 100.203C88.1193 100.725 88.293 101.246 88.5535 101.767C88.7272 102.028 88.814 102.202 88.9008 102.463L88.9877 102.637L89.1613 102.897C89.2482 103.071 89.4219 103.245 89.5955 103.419C90.2034 104.114 91.0718 104.548 92.027 104.375C92.4612 104.288 92.8954 104.114 93.3296 103.766C93.5033 103.592 93.7638 103.419 93.9374 103.245L94.198 102.984L94.3716 102.81C94.5453 102.637 94.719 102.376 94.8927 102.115C95.0663 101.854 95.1532 101.594 95.3268 101.333C95.6742 100.638 95.8479 99.9424 95.9347 99.1603C96.0216 98.3781 95.761 97.4221 95.3268 96.7269C94.3716 95.3364 92.6349 95.0757 91.6797 95.4233C90.6376 95.7709 90.2034 96.3793 89.9429 96.8138C89.5087 97.3352 89.5087 97.6828 89.7692 97.8567Z" fill="#A8A8A8"/>
<path d="M188.591 79.2585C188.852 79.4323 189.113 79.4323 189.46 79.3454C189.807 79.2585 190.241 79.1716 190.676 79.2585C191.023 79.3454 191.283 79.5192 191.37 79.78C191.37 79.8669 191.37 79.9538 191.37 80.2145C191.283 80.4752 191.197 80.8228 191.023 81.1705C190.936 81.3443 190.849 81.4312 190.762 81.605C190.676 81.7788 190.589 81.8657 190.502 82.0395L190.415 82.2133L190.328 82.3002L190.241 82.2133C190.155 82.0395 189.981 81.9526 189.894 81.7788C189.72 81.5181 189.547 81.3443 189.46 81.1705C189.199 80.8228 189.113 80.4752 189.113 80.1276C188.852 79.78 188.765 79.4323 188.591 79.2585C188.418 79.0847 188.07 79.0847 187.636 79.4323C187.202 79.78 186.768 80.649 186.942 81.605C186.942 82.1264 187.115 82.6479 187.376 83.1693C187.549 83.43 187.636 83.6038 187.723 83.8645L187.81 84.0384L187.984 84.2991C188.07 84.4729 188.244 84.6467 188.418 84.8205C189.026 85.5158 189.894 85.9503 190.849 85.7765C191.283 85.6896 191.718 85.5158 192.152 85.1681C192.326 84.9943 192.586 84.8205 192.76 84.6467L193.02 84.386L193.194 84.2122C193.368 84.0384 193.541 83.7776 193.715 83.5169C193.889 83.2562 193.975 82.9955 194.149 82.7348C194.496 82.0395 194.67 81.3443 194.757 80.5621C194.844 79.78 194.583 78.824 194.149 78.1287C193.194 76.7382 191.457 76.4775 190.502 76.8251C189.46 77.1728 189.026 77.7811 188.765 78.2156C188.331 78.7371 188.331 79.0847 188.591 79.2585Z" fill="#A8A8A8"/>
<path d="M225.237 59.0093C224.456 58.2272 222.719 59.27 220.809 61.0951C220.722 61.182 220.635 61.2689 220.548 61.3558C220.461 61.4427 220.374 61.5296 220.288 61.6165C218.551 63.5284 217.422 65.1797 218.203 66.0487C218.898 66.744 220.722 65.788 222.632 63.963C222.719 63.8761 222.806 63.7892 222.893 63.7023C222.98 63.6154 223.066 63.5284 223.153 63.4415C224.89 61.5296 225.932 59.7046 225.237 59.0093Z" fill="#A8A8A8"/>
<path d="M121.9 103.418C120.858 102.984 120.25 103.245 119.816 103.94V104.027C119.816 104.027 119.816 104.114 119.729 104.114C119.468 104.809 119.729 105.504 120.771 105.939C121.726 106.373 122.421 106.026 122.855 105.417V105.33C122.855 105.33 122.855 105.244 122.942 105.244C123.115 104.548 122.855 103.853 121.9 103.418Z" fill="#A8A8A8"/>
<path d="M65.7152 94.9886C64.9336 95.7708 64.9336 96.466 65.3678 96.9875L65.4547 97.0744L65.5415 97.1613C66.0625 97.5958 66.7572 97.5958 67.5388 96.8137C68.2335 96.1184 68.3203 95.3363 67.8861 94.8148L67.7993 94.7279L67.7125 94.641C67.2783 94.2065 66.4967 94.2065 65.7152 94.9886Z" fill="#A8A8A8"/>
<path d="M75.788 9.47286C75.267 9.47286 74.8328 9.90739 74.6591 10.6026C74.4854 11.2979 74.5723 12.2539 74.9196 13.2967L75.0065 13.5575L75.0933 13.8182C75.5275 14.7741 76.2222 15.5563 76.8301 15.9908C77.4379 16.4254 77.9589 16.4254 78.3931 16.0777C79.1747 15.3825 78.7405 14.0789 78.1326 12.5146L78.0458 12.2539V12.167C77.4379 10.6895 76.8301 9.38596 75.788 9.47286Z" fill="#A8A8A8"/>
<path d="M135.619 25.29C134.838 24.5078 133.796 24.8555 132.927 25.6376C132.927 25.6376 132.84 25.7245 132.84 25.8114C132.754 25.8114 132.754 25.8983 132.667 25.8983C131.885 26.8543 131.538 27.8103 132.319 28.5924C133.014 29.2877 134.056 29.027 135.011 28.2448C135.011 28.1579 135.098 28.1579 135.098 28.071C135.185 28.071 135.185 27.9841 135.272 27.9841C136.053 27.0281 136.314 25.9853 135.619 25.29Z" fill="#A8A8A8"/>
<path d="M239.131 99.7684C238.35 98.9863 237.394 99.247 236.613 99.9422L236.526 100.029L236.439 100.116C235.745 100.898 235.484 101.854 236.266 102.636C236.96 103.332 238.002 103.158 238.784 102.463L238.871 102.376L238.958 102.289C239.652 101.42 239.913 100.464 239.131 99.7684Z" fill="#A8A8A8"/>
<path d="M170.181 24.8554C169.399 24.0732 168.965 23.8125 168.791 23.8125C168.704 23.9863 168.965 24.3339 169.833 25.203C170.528 25.8982 171.049 26.2459 171.223 26.2459C171.223 26.0721 170.962 25.6375 170.181 24.8554Z" fill="#A8A8A8"/>
<path d="M184.51 0.347763C183.728 -0.434393 182.165 0.434669 180.602 1.91207C180.515 1.99898 180.428 2.08589 180.342 2.17279C180.255 2.2597 180.168 2.3466 180.081 2.43351C178.605 3.99782 177.736 5.47522 178.518 6.34429C179.213 7.03954 180.776 6.25738 182.426 4.77998C182.512 4.69307 182.599 4.60616 182.686 4.51926C182.773 4.43235 182.86 4.34545 182.947 4.25854C184.423 2.60732 185.291 1.04301 184.51 0.347763Z" fill="#A8A8A8"/>
<path d="M117.124 42.0626C116.95 41.8019 115.213 42.7579 112.347 44.7567C110.871 45.7996 109.134 47.1032 107.224 48.8413C105.314 50.5794 103.316 52.7521 101.493 55.5331C99.669 58.3141 98.3665 62.051 98.4533 66.1356C98.5402 70.2202 100.103 74.4786 103.056 78.0418C104.532 79.7799 106.356 81.4311 108.44 82.6478C110.524 83.8645 113.042 84.7335 115.647 84.8204C118.252 84.9073 121.118 84.2121 123.376 82.6478C125.634 81.0835 127.457 78.8239 128.499 76.1298C129.281 73.9572 129.541 71.6107 129.107 69.3512C128.847 68.2214 128.412 67.0047 127.631 65.9618C126.849 64.9189 125.634 64.1368 124.505 63.7023C121.639 62.7463 118.6 63.007 116.081 64.0499C113.563 65.0927 111.392 66.8309 109.829 68.8297C109.048 69.7857 108.266 70.9155 107.745 72.0452C107.224 73.175 106.79 74.3048 106.442 75.4346C105.748 77.781 105.487 80.0406 105.4 82.3002C105.314 86.7324 105.921 90.817 106.529 94.5539C107.224 98.2909 108.006 101.767 108.961 104.809C110.784 110.979 112.868 115.672 114.518 118.888C116.168 122.016 117.297 123.581 117.558 123.494C117.818 123.407 117.037 121.582 115.821 118.279C114.605 115.064 112.782 110.284 111.305 104.201C110.524 101.159 109.829 97.7695 109.308 94.1194C108.787 90.4693 108.353 86.4717 108.527 82.3871C108.613 80.3882 108.874 78.3025 109.482 76.3036C110.09 74.3048 110.958 72.3929 112.347 70.8286C113.65 69.1773 115.387 67.8737 117.384 67.0916C119.294 66.3094 121.552 66.1356 123.376 66.8309C124.071 67.0916 124.678 67.4392 125.026 67.9607C125.46 68.4821 125.72 69.1773 125.894 69.9595C126.242 71.5238 126.068 73.2619 125.46 74.9131C124.678 76.912 123.289 78.737 121.639 79.8668C119.902 81.0835 117.905 81.6049 115.908 81.518C113.91 81.4311 111.913 80.8228 110.09 79.8668C108.353 78.9108 106.79 77.5203 105.487 76.0429C102.969 73.0881 101.579 69.3512 101.319 65.9618C101.145 62.4856 102.187 59.3569 103.664 56.7498C105.14 54.1426 106.963 51.9699 108.7 50.2318C110.437 48.4937 112 47.0163 113.303 45.8865C115.821 43.54 117.297 42.2364 117.124 42.0626Z" fill="#8E9BAE"/>
<path d="M267.701 168.685C267.701 168.685 279.859 163.818 286.719 169.033C293.579 174.247 253.807 187.37 232.098 188.413C255.718 181.2 265.704 177.115 265.704 177.115L267.701 168.685Z" fill="#8E9BAE"/>
<path d="M215.946 136.095C210.475 121.061 208.738 124.276 204.657 122.712C197.797 120.018 186.334 118.019 186.334 118.019V99.1602L266.051 123.407L215.946 136.095Z" fill="#24252A"/>
<path d="M131.887 144.004L128.326 145.22L129.368 102.636L206.48 122.798L131.887 144.004Z" fill="#24252A"/>
<path d="M131.885 144.004C132.232 145.133 147.255 141.31 166.707 135.834C167.662 135.574 168.617 135.313 169.573 134.965C170.528 134.705 171.483 134.444 172.438 134.183C191.89 128.621 206.652 123.928 206.392 122.799C206.131 121.843 191.022 125.493 171.57 130.968C170.615 131.228 169.659 131.489 168.704 131.837C167.749 132.098 166.794 132.358 165.839 132.619C146.387 138.268 131.538 143.048 131.885 144.004Z" fill="#8E9BAE"/>
<path d="M206.393 144.003C205.872 144.003 205.524 149.392 205.264 158.517C205.177 163.036 205.09 168.511 205.003 174.681C205.003 180.417 204.916 186.848 204.916 193.714C203.18 194.148 201.443 194.67 199.619 195.191C198.056 195.626 196.493 196.06 194.93 196.495C193.367 196.929 191.804 197.364 190.241 197.798C174.523 202.231 160.716 206.141 150.816 209.183C140.917 212.225 135.012 214.31 135.185 214.832C135.359 215.353 141.438 214.05 151.511 211.529C161.584 209.009 175.478 205.359 191.196 201.014C192.759 200.579 194.322 200.145 195.885 199.71C197.448 199.276 199.011 198.841 200.574 198.407C203.18 197.711 205.785 196.929 208.303 196.234C208.303 192.149 208.216 188.152 208.216 184.415C208.129 181.025 208.129 177.81 208.043 174.681C207.956 168.511 207.782 163.123 207.608 158.517C207.261 149.392 206.827 144.003 206.393 144.003Z" fill="#8E9BAE"/>
<path d="M129.889 216.744C130.062 216.223 123.723 214.05 113.129 210.922C102.535 207.793 87.6853 203.621 70.9256 199.015C69.1888 198.581 67.5389 198.146 65.889 197.625C64.239 197.19 62.5891 196.756 60.8524 196.234C58.0735 195.539 55.4684 194.757 52.8632 194.062C52.6896 187.022 52.5159 180.418 52.4291 174.508C52.2554 168.251 52.0817 162.689 51.8212 157.996C51.387 148.697 50.9528 143.222 50.4318 143.222C49.9976 143.222 49.6502 148.697 49.5634 157.996C49.4766 162.602 49.4766 168.164 49.4766 174.508C49.4766 177.637 49.4766 181.026 49.4766 184.502C49.4766 188.413 49.5634 192.411 49.5634 196.582C52.9501 197.538 56.3368 198.494 59.8971 199.45C61.6339 199.884 63.2838 200.319 64.9337 200.84C66.5837 201.275 68.2336 201.71 69.9704 202.231C86.817 206.75 101.666 210.661 112.434 213.268C123.202 215.875 129.715 217.266 129.889 216.744Z" fill="#8E9BAE"/>
<path d="M50.4308 124.363C50.2571 124.884 57.5515 127.231 69.622 130.794C81.6925 134.27 98.6259 138.963 117.73 144.178C119.641 144.699 121.551 145.22 123.462 145.742L125.633 146.35L126.588 146.611V146.698C126.935 166.512 127.283 184.067 127.804 196.669C128.238 209.27 128.759 216.831 129.367 216.831C129.888 216.831 130.148 209.183 130.235 196.582C130.322 183.981 130.235 166.425 129.974 146.611V144.004L124.33 142.526C122.42 142.005 120.509 141.483 118.599 140.962C99.4075 135.835 82.474 131.489 70.2299 128.534C57.9857 125.58 50.5176 123.841 50.4308 124.363Z" fill="#8E9BAE"/>
<path d="M202.833 122.19C203.006 121.669 195.799 119.409 183.902 116.107C172.005 112.804 155.332 108.459 136.488 103.592C134.491 103.071 132.494 102.549 130.583 102.115L130.323 102.028L124.418 103.592C105.574 108.546 88.9879 113.065 77.0911 116.454C65.1943 119.844 58.0736 122.103 58.2472 122.711C58.4209 123.233 65.7153 121.669 77.699 118.801C89.6826 115.933 106.356 111.674 125.199 106.808L130.323 105.504C132.06 105.939 133.883 106.373 135.62 106.895C154.464 111.674 171.224 115.759 183.207 118.453C195.365 121.234 202.746 122.711 202.833 122.19Z" fill="#8E9BAE"/>
<path d="M222.893 134.531C222.98 134.965 227.235 134.183 234.616 132.532C241.997 130.881 252.418 128.273 264.922 125.145L265.096 125.058C265.183 125.058 265.183 125.058 265.183 125.058V125.406C265.183 126.622 265.183 127.752 265.183 128.969C265.183 131.402 265.183 133.835 265.183 136.356C265.183 141.396 265.183 146.698 265.096 152.086C265.096 154.172 265.096 156.257 265.096 158.256C265.096 160.342 265.096 162.341 265.096 164.426C265.096 167.034 265.096 169.554 265.096 172.074V173.03C265.096 173.291 265.096 173.465 265.009 173.725C264.922 174.16 264.836 174.594 264.662 175.029C264.315 175.898 263.707 176.593 262.925 177.028C262.751 177.115 262.578 177.289 262.317 177.375L262.23 177.462C262.23 177.462 262.23 177.462 262.144 177.462L261.709 177.549C261.101 177.723 260.58 177.897 259.973 178.071C258.844 178.418 257.715 178.679 256.586 179.027C254.328 179.635 252.157 180.243 250.073 180.852C241.563 183.285 234.008 185.371 227.756 187.283C215.164 191.02 207.609 193.453 207.696 194.061C207.87 194.583 215.598 192.845 228.364 189.629C234.703 188.065 242.344 186.066 250.855 183.807C253.026 183.285 255.196 182.677 257.367 182.068C258.496 181.808 259.625 181.46 260.754 181.199C261.362 181.026 261.883 180.852 262.491 180.765L262.925 180.678C262.925 180.678 263.186 180.591 263.272 180.591L263.533 180.504C263.88 180.33 264.228 180.156 264.575 179.983C265.878 179.2 266.92 177.984 267.614 176.593C267.962 175.898 268.135 175.116 268.309 174.334C268.396 173.986 268.396 173.552 268.396 173.204V172.248C268.396 169.728 268.396 167.207 268.396 164.6C268.396 162.515 268.396 160.429 268.396 158.43C268.396 156.344 268.396 154.345 268.396 152.26C268.396 146.784 268.396 141.57 268.309 136.53C268.309 134.009 268.309 131.489 268.222 129.143C268.222 127.926 268.222 126.709 268.222 125.579C268.222 125.406 268.222 124.623 268.049 124.189C267.875 123.667 267.528 123.233 267.093 122.885C266.225 122.19 265.009 122.016 263.967 122.451L264.141 122.364C251.723 125.753 241.389 128.621 234.095 130.794C226.8 132.966 222.806 134.183 222.893 134.531Z" fill="#8E9BAE"/>
<path d="M261.621 122.016C261.968 120.887 241.388 114.369 214.555 106.286C213.165 105.852 211.863 105.504 210.56 105.07C209.257 104.635 207.868 104.288 206.565 103.853C203.005 102.81 199.618 101.854 196.319 100.898C192.845 99.9422 189.632 98.9862 186.506 98.1172C184.248 98.8124 182.164 99.5077 180.08 100.116C178.169 100.724 176.346 101.333 174.696 101.854C171.309 102.984 168.357 103.94 165.925 104.809C161.062 106.46 158.37 107.677 158.457 108.024C158.544 108.372 161.496 107.851 166.446 106.634C168.965 106.026 171.917 105.243 175.391 104.374C178.69 103.505 182.424 102.462 186.506 101.333C189.285 102.202 192.324 103.158 195.45 104.114C198.75 105.07 202.137 106.113 205.61 107.155C207 107.59 208.302 107.938 209.605 108.372C210.907 108.807 212.297 109.154 213.599 109.589C240.519 117.41 261.36 122.972 261.621 122.016Z" fill="#8E9BAE"/>
<path d="M128.933 141.744C130.062 141.744 130.583 133.922 130.844 123.754C130.844 123.233 130.844 122.712 130.844 122.19C130.844 121.669 130.844 121.147 130.844 120.626C130.844 110.458 130.496 102.636 129.368 102.549C128.326 102.549 127.718 110.371 127.544 120.539C127.544 121.06 127.544 121.582 127.544 122.103C127.544 122.625 127.544 123.146 127.544 123.668C127.457 133.922 127.891 141.744 128.933 141.744Z" fill="#8E9BAE"/>
<path d="M186.419 118.019C187.548 118.019 187.983 114.369 188.069 109.589C188.069 109.328 188.069 109.154 188.069 108.894C188.069 108.633 188.069 108.459 188.069 108.198C187.983 103.419 187.548 99.7686 186.419 99.7686C185.377 99.7686 184.856 103.419 184.77 108.198C184.77 108.459 184.77 108.633 184.77 108.894C184.77 109.154 184.77 109.328 184.77 109.589C184.856 114.369 185.377 118.019 186.419 118.019Z" fill="#8E9BAE"/>
<path d="M130.322 145.655C130.322 145.829 130.756 146.003 131.538 146.35C132.32 146.698 133.448 147.393 134.664 148.436C135.88 149.566 137.096 151.13 138.051 153.216C138.572 154.259 138.919 155.475 139.353 156.779C139.527 157.387 139.701 158.083 139.874 158.778C140.135 159.908 140.482 161.124 140.743 162.341C145.606 160.951 151.25 159.299 157.329 157.561C162.973 155.91 169.052 154.085 175.478 152.173C176.954 151.738 178.431 151.304 179.907 150.869C181.383 150.435 182.859 150 184.336 149.566C191.717 147.306 198.751 145.134 205.003 143.135C208.129 142.179 211.082 141.223 213.861 140.267C214.555 140.006 215.25 139.832 215.858 139.572C216.466 139.398 216.987 139.224 217.595 139.05C217.855 138.963 218.202 138.876 218.463 138.789L218.637 138.703C218.723 138.703 218.723 138.703 218.637 138.616V138.529L218.55 138.094C218.376 137.486 218.202 136.964 218.116 136.356C218.029 136.008 217.855 135.574 217.768 135.226C217.595 134.618 217.421 134.01 217.16 133.401C216.292 130.968 215.337 128.882 214.034 127.231C212.818 125.58 211.342 124.45 210.126 123.755C208.824 123.059 207.782 122.799 207 122.712C206.219 122.625 205.871 122.712 205.871 122.886C205.785 123.233 207.348 123.407 209.345 124.971C210.387 125.754 211.429 126.883 212.471 128.448C213.426 130.012 214.295 131.924 214.903 134.27C215.076 134.879 215.25 135.4 215.337 136.095L215.424 136.53L215.51 136.704V136.791V137.051C215.597 137.138 215.424 137.138 215.337 137.138H215.25H215.163C215.163 137.138 215.163 137.138 215.076 137.138C214.382 137.312 213.687 137.486 212.992 137.747C210.213 138.529 207.174 139.398 204.048 140.354C197.709 142.179 190.675 144.265 183.294 146.524C181.817 146.959 180.341 147.393 178.865 147.915C177.389 148.349 175.912 148.784 174.436 149.218C168.01 151.217 161.931 153.129 156.374 154.78C153.595 155.649 150.903 156.518 148.385 157.3C147.082 157.735 145.866 158.083 144.737 158.517C144.13 158.691 143.522 158.865 143.001 159.126C142.827 159.212 142.74 159.212 142.566 159.299L142.48 159.039C142.393 158.952 142.393 158.865 142.306 158.43C142.132 157.735 141.872 157.04 141.611 156.345C141.09 154.954 140.569 153.737 139.961 152.608C138.746 150.348 137.182 148.61 135.706 147.567C134.23 146.437 132.841 146.003 131.885 145.829C130.843 145.394 130.409 145.568 130.322 145.655Z" fill="#8E9BAE"/>
<path d="M126.935 146.176C126.935 146.002 126.414 145.915 125.459 146.089C124.503 146.263 123.114 146.698 121.638 147.827C120.161 148.87 118.512 150.608 117.296 152.868C116.688 153.998 116.167 155.301 115.646 156.605C115.385 157.3 115.212 157.995 114.951 158.691L114.778 159.212L114.691 159.299L114.604 159.473L114.43 159.386H114.343C114.343 159.386 114.343 159.386 114.256 159.386C113.649 159.212 113.041 159.038 112.52 158.864C111.304 158.517 110.088 158.169 108.786 157.735C106.267 156.953 103.489 156.257 100.71 155.388C95.0653 153.824 88.8998 152.086 82.4737 150.261C80.9975 149.826 79.5212 149.479 77.9582 149.044C76.4819 148.61 75.0057 148.262 73.5294 147.827C66.0613 145.742 59.0274 143.83 52.6014 142.178C49.3884 141.309 46.3491 140.527 43.5703 139.832C42.8756 139.658 42.1809 139.484 41.4861 139.311C41.3993 139.311 41.3993 139.311 41.3993 139.311H41.3125H41.2256C41.1388 139.311 41.052 139.311 41.052 139.224C40.9651 139.397 41.3993 137.572 41.7467 136.53C42.4414 134.27 43.2229 132.271 44.1781 130.707C45.1333 129.143 46.2622 128.013 47.2175 127.231C49.2147 125.666 50.7778 125.406 50.691 125.058C50.691 124.971 50.2568 124.884 49.5621 124.971C48.7805 125.058 47.7385 125.319 46.4359 126.014C45.2202 126.709 43.7439 127.839 42.5282 129.49C41.2256 131.141 40.2704 133.227 39.402 135.661C38.9678 136.964 38.7073 137.659 38.0126 140.44L37.9258 140.875V140.962C37.9258 140.962 38.0126 140.962 38.0126 141.049L38.1863 141.136C38.4468 141.222 38.7942 141.309 39.0547 141.396C39.6625 141.57 40.1836 141.744 40.7914 141.918C41.4861 142.092 42.1809 142.352 42.8756 142.526C45.6544 143.308 48.6937 144.264 51.8199 145.133C58.1591 146.958 65.193 148.957 72.661 151.043C74.1373 151.477 75.6135 151.825 77.0898 152.26C78.566 152.694 80.0423 153.042 81.5185 153.476C88.0314 155.214 94.1969 156.866 99.8414 158.43C106.007 159.994 111.651 161.472 116.514 162.775C116.775 161.559 117.122 160.429 117.383 159.299C117.556 158.604 117.73 157.908 117.904 157.3C118.251 155.997 118.685 154.78 119.206 153.737C120.161 151.564 121.377 150 122.593 148.87C123.809 147.74 124.938 147.132 125.719 146.784C126.501 146.524 127.022 146.35 126.935 146.176Z" fill="#8E9BAE"/>
<path d="M4.92826 218.656C4.66774 217.526 3.71253 217.352 2.49679 217.526C2.40995 217.526 2.40995 217.526 2.32312 217.613C2.23628 217.613 2.23628 217.613 2.14944 217.613C1.02054 217.961 0.239 218.656 0.499515 219.699C0.760029 220.742 1.71525 221.002 2.93098 220.829C3.01782 220.829 3.01782 220.829 3.10466 220.742C3.1915 220.742 3.1915 220.742 3.27833 220.742C4.40723 220.394 5.18877 219.612 4.92826 218.656Z" fill="#8E9BAE"/>
<path d="M66.496 188.239C66.5828 187.891 64.8461 187.196 62.5015 186.588L62.1541 186.501L61.8068 186.414C59.3753 185.979 57.5517 185.979 57.4648 186.327C57.4648 186.675 59.2884 186.935 61.5462 187.457L61.8936 187.544L62.2409 187.631C64.6724 188.065 66.4092 188.587 66.496 188.239Z" fill="#8E9BAE"/>
<path d="M75.1807 194.061C75.2676 193.801 72.1414 192.323 67.7995 191.28C67.539 191.194 67.3653 191.194 67.1048 191.107C66.9311 191.02 66.6706 191.02 66.4101 190.933C61.9813 189.977 58.5947 189.89 58.5078 190.238C58.5078 190.585 61.8945 190.933 66.1496 191.976C66.3232 192.063 66.5838 192.063 66.7574 192.15C66.9311 192.236 67.1916 192.236 67.3653 192.323C71.8809 193.279 75.0939 194.409 75.1807 194.061Z" fill="#8E9BAE"/>
<path d="M154.81 124.711C154.897 124.363 151.945 123.059 147.863 121.843C147.69 121.756 147.429 121.756 147.255 121.669C147.082 121.582 146.821 121.582 146.648 121.495C142.479 120.452 139.266 120.105 139.179 120.452C139.093 120.8 142.306 121.408 146.387 122.451C146.561 122.538 146.821 122.538 146.995 122.625C147.169 122.712 147.429 122.712 147.603 122.799C151.597 123.928 154.723 124.971 154.81 124.711Z" fill="#8E9BAE"/>
<path d="M142.913 125.319C143.087 124.971 142.479 124.623 141.784 124.189C141.784 124.189 141.697 124.189 141.697 124.102C141.697 124.102 141.611 124.102 141.611 124.015C140.829 123.668 140.134 123.494 140.048 123.754C139.874 124.015 140.482 124.45 141.176 124.884C141.176 124.884 141.263 124.884 141.263 124.971C141.263 124.971 141.35 124.971 141.35 125.058C142.132 125.493 142.74 125.579 142.913 125.319Z" fill="#8E9BAE"/>
<path d="M232.357 160.603C232.618 160.777 233.833 158.778 235.136 155.997C235.223 155.823 235.223 155.736 235.31 155.562C235.396 155.388 235.396 155.301 235.483 155.128C236.699 152.347 237.307 150.087 237.046 150C236.786 149.913 235.831 151.999 234.615 154.693C234.528 154.867 234.528 154.954 234.441 155.128C234.354 155.301 234.354 155.388 234.268 155.562C232.965 158.343 232.01 160.429 232.357 160.603Z" fill="#8E9BAE"/>
<path d="M235.223 161.733C235.57 161.819 235.918 161.124 236.265 160.081C236.265 159.994 236.265 159.994 236.352 159.908C236.352 159.821 236.352 159.821 236.439 159.734C236.699 158.691 236.786 157.909 236.526 157.822C236.265 157.735 235.831 158.43 235.484 159.473C235.484 159.56 235.484 159.56 235.397 159.647C235.397 159.734 235.397 159.734 235.31 159.821C234.963 160.863 234.876 161.646 235.223 161.733Z" fill="#8E9BAE"/>
<path d="M190.068 59.444C188.852 64.5715 184.77 68.9168 180.515 70.3942C176.174 71.9585 171.311 70.4811 169.4 66.1358C166.621 59.7917 170.616 50.0582 179.213 47.7117C187.376 45.4522 191.718 52.2308 190.068 59.444Z" fill="#E2E2E2"/>
<path d="M186.159 45.7129C186.246 45.4521 185.551 44.7569 183.815 44.1485C182.946 43.8878 181.817 43.714 180.515 43.8009C180.167 43.8009 179.82 43.8878 179.473 43.8878C179.125 43.9747 178.778 44.0616 178.431 44.1485C178.083 44.2355 177.736 44.3224 177.302 44.4093C176.954 44.5831 176.607 44.67 176.173 44.8438C175.391 45.1045 174.697 45.5391 173.828 45.9736C173.481 46.2343 173.047 46.495 172.699 46.7557C172.526 46.9295 172.352 47.0165 172.092 47.1903C171.918 47.3641 171.744 47.5379 171.571 47.7117C170.094 49.0153 168.879 50.7534 167.836 52.6654C166.881 54.6642 166.187 56.9238 166.013 59.3571C165.839 61.7905 166.1 64.3977 167.402 66.918C167.923 67.9608 168.618 68.8299 169.486 69.612C170.355 70.3942 171.223 71.0025 172.265 71.4371C174.87 72.5669 177.562 72.6538 179.994 72.1323C182.425 71.6109 184.596 70.3942 186.246 69.0037C189.72 66.2227 191.717 62.6596 192.325 59.444C192.933 56.2285 192.412 53.5344 191.717 51.9701C191.022 50.3189 190.241 49.7105 189.98 49.7974C189.72 49.9713 190.067 50.8403 190.328 52.4046C190.588 53.9689 190.762 56.2285 189.98 58.9226C189.199 61.5298 187.375 64.4846 184.336 66.6572C182.859 67.7001 181.123 68.6561 179.212 69.0037C177.302 69.3513 175.305 69.2644 173.481 68.4823C172.786 68.1346 172.092 67.7001 171.571 67.2656C171.049 66.7441 170.528 66.1358 170.181 65.4406C169.226 63.7024 168.965 61.6167 169.139 59.6178C169.226 57.619 169.747 55.7071 170.528 54.0559C171.31 52.4046 172.265 50.9272 173.394 49.7974C173.568 49.6236 173.655 49.5367 173.828 49.3629L174.263 49.0153C174.523 48.7546 174.87 48.4939 175.131 48.32C175.739 47.8855 176.347 47.451 176.954 47.1903C177.302 47.0165 177.562 46.8426 177.823 46.7557C178.17 46.6688 178.431 46.5819 178.691 46.4081C179.299 46.1474 179.82 45.9736 180.341 45.8867C181.383 45.626 182.338 45.626 183.12 45.7129C185.204 45.7129 186.072 45.9736 186.159 45.7129Z" fill="#6F2FCE"/>
<path d="M180.863 53.4474C179.734 53.5343 179.56 56.1415 179.387 59.357C179.387 59.5309 179.387 59.7047 179.387 59.8785C179.387 60.0523 179.387 60.2261 179.387 60.3999C179.387 63.6154 179.387 66.1357 180.516 66.3964C181.558 66.5703 182.6 64.05 182.773 60.4868C182.773 60.313 182.773 60.1392 182.773 59.9654C182.773 59.7916 182.773 59.6178 182.773 59.4439C182.687 55.9677 181.905 53.3605 180.863 53.4474Z" fill="#6F2FCE"/>
<path d="M186.421 58.5749C186.16 57.4451 183.815 57.532 180.863 58.1404C180.689 58.1404 180.602 58.2273 180.429 58.2273C180.255 58.2273 180.168 58.3142 179.995 58.3142C177.129 59.0963 174.958 60.0523 175.218 61.1821C175.479 62.2249 177.824 62.2249 180.776 61.6166C180.95 61.6166 181.037 61.5297 181.21 61.5297C181.384 61.5297 181.471 61.4428 181.645 61.4428C184.51 60.6606 186.594 59.6178 186.421 58.5749Z" fill="#6F2FCE"/>
<path d="M100.538 224.652C101.059 225.695 105.053 224.131 110.264 222.219C110.524 222.132 110.785 222.045 111.045 221.958C111.306 221.871 111.566 221.785 111.827 221.698C117.037 219.786 121.118 218.395 120.771 217.265C120.51 216.309 116.082 216.744 110.698 218.569C110.437 218.656 110.177 218.743 109.916 218.83C109.656 218.917 109.395 219.004 109.135 219.09C103.664 221.176 100.017 223.696 100.538 224.652Z" fill="#8E9BAE"/>
<path d="M96.7167 223.262C97.1509 224.305 101.145 223.001 106.269 221.089C106.529 221.002 106.79 220.916 107.05 220.829C107.311 220.742 107.571 220.655 107.832 220.568C112.869 218.569 116.689 216.831 116.342 215.788C115.995 214.832 111.827 215.614 106.616 217.439C106.356 217.526 106.095 217.613 105.835 217.7C105.574 217.787 105.314 217.874 105.053 217.961C99.9297 220.046 96.3694 222.306 96.7167 223.262Z" fill="#8E9BAE"/>
<path d="M92.8963 222.566C93.4174 223.609 97.4119 222.045 102.622 220.133C102.883 220.046 103.143 219.959 103.404 219.872C103.664 219.785 103.925 219.699 104.185 219.612C109.396 217.7 113.477 216.309 113.13 215.179C112.869 214.223 108.44 214.658 103.056 216.483C102.796 216.57 102.535 216.657 102.275 216.744C102.014 216.831 101.754 216.918 101.493 217.004C96.1093 219.09 92.4621 221.61 92.8963 222.566Z" fill="#8E9BAE"/>
<path d="M89.162 221.176C89.5962 222.219 93.5907 220.915 98.7142 219.003C98.9747 218.917 99.2352 218.83 99.4957 218.743C99.7563 218.656 100.017 218.569 100.277 218.482C105.314 216.483 109.135 214.745 108.787 213.702C108.44 212.746 104.272 213.528 99.0615 215.353C98.801 215.44 98.5405 215.527 98.28 215.614C98.0195 215.701 97.759 215.788 97.4985 215.875C92.375 217.961 88.7278 220.22 89.162 221.176Z" fill="#8E9BAE"/>
<path d="M80.3045 223.957C80.8256 225 86.47 222.393 93.9381 219.698C94.2855 219.525 94.7197 219.438 95.067 219.264C95.4144 219.177 95.8485 219.003 96.1959 218.916C103.664 216.222 109.656 214.745 109.395 213.615C109.222 212.659 102.882 213.181 95.067 215.788C94.7197 215.962 94.2855 216.048 93.9381 216.222C93.5908 216.396 93.1566 216.483 92.8092 216.657C85.0806 219.525 79.8703 223.088 80.3045 223.957Z" fill="#8E9BAE"/>
<path d="M75.8764 219.525C76.0501 220.655 81.6077 220.046 88.7284 218.308C89.0758 218.221 89.4231 218.135 89.7705 218.048C90.1178 217.961 90.4652 217.874 90.8126 217.787C97.7596 215.875 102.97 213.615 102.536 212.573C102.188 211.617 96.8044 212.833 89.9442 214.571C89.5968 214.658 89.2495 214.745 88.9021 214.832C88.5548 214.919 88.2074 215.006 87.8601 215.093C80.913 217.005 75.6159 218.569 75.8764 219.525Z" fill="#8E9BAE"/>
<path d="M70.5776 218.047C71.0987 219.09 75.8748 217.178 82.1271 215.353C82.4745 215.266 82.735 215.18 83.0823 215.093C83.4297 215.006 83.6902 214.919 84.0375 214.832C90.3767 212.92 95.4133 211.964 95.2397 210.834C95.1528 209.791 89.7689 209.878 83.1692 211.616C82.8218 211.703 82.4745 211.79 82.214 211.877C81.8666 211.964 81.6061 212.051 81.2587 212.138C74.659 214.31 70.1434 217.178 70.5776 218.047Z" fill="#8E9BAE"/>
<path d="M65.8888 214.137C66.1493 215.267 70.4912 214.571 76.0488 213.181C76.3093 213.094 76.5698 213.007 76.8304 212.92C77.0909 212.833 77.3514 212.746 77.6119 212.746C83.0827 211.182 87.2509 209.618 86.9036 208.575C86.6431 207.532 82.3012 208.14 76.7435 209.531C76.483 209.618 76.2225 209.705 75.962 209.791C75.7015 209.878 75.4409 209.965 75.1804 209.965C69.7096 211.443 65.6282 213.094 65.8888 214.137Z" fill="#8E9BAE"/>
<path d="M52.6036 209.705C52.8641 210.834 57.206 210.139 62.7637 208.749C63.0242 208.662 63.2847 208.575 63.5452 208.488C63.8057 208.401 64.0662 208.314 64.3267 208.314C69.7976 206.75 73.9658 205.186 73.6184 204.143C73.3579 203.1 69.016 203.708 63.4584 205.099C63.1979 205.186 62.9373 205.272 62.6768 205.359C62.4163 205.446 62.1558 205.533 61.8953 205.533C56.4245 207.011 52.3431 208.662 52.6036 209.705Z" fill="#8E9BAE"/>
<path d="M46.5248 213.441C46.6985 214.571 53.5587 213.789 62.2425 211.877C62.6767 211.79 63.1109 211.703 63.5451 211.616C63.9793 211.529 64.4135 211.442 64.8477 211.356C73.5315 209.357 80.0443 207.184 79.7838 206.054C79.5233 205.011 72.8368 206.228 64.153 208.053C63.7188 208.14 63.2846 208.227 62.8504 208.314C62.4162 208.401 61.982 208.488 61.5478 208.575C52.9509 210.66 46.3512 212.398 46.5248 213.441Z" fill="#8E9BAE"/>
<path d="M44.0063 210.052C44.4405 210.487 45.6563 209.878 47.6535 209.183C49.7376 208.488 52.777 207.879 56.3373 207.184C56.6847 207.097 57.032 207.097 57.3794 207.01C57.7268 206.923 58.0741 206.923 58.4215 206.837C61.9818 206.228 65.1948 205.794 67.4526 205.272C69.7104 204.751 71.0998 204.229 71.0998 203.708C71.013 203.186 69.6236 202.926 67.2789 202.839C64.9343 202.752 61.6345 202.926 57.9004 203.534C57.5531 203.621 57.1189 203.621 56.7715 203.708C56.4242 203.795 56.0768 203.795 55.6426 203.882C53.819 204.229 52.0823 204.664 50.5192 205.185C48.9561 205.707 47.5667 206.315 46.5246 206.923C44.5274 208.314 43.659 209.704 44.0063 210.052Z" fill="#8E9BAE"/>
<path d="M42.0949 207.966C42.6159 209.009 46.0895 207.879 50.5182 206.141C50.7787 206.054 50.9524 205.968 51.2129 205.881C51.4734 205.794 51.6471 205.707 51.9076 205.62C56.3364 203.795 59.6362 202.317 59.2888 201.188C58.9415 200.232 55.2075 200.84 50.6919 202.491C50.4314 202.578 50.2577 202.665 49.9972 202.752C49.7367 202.839 49.563 202.926 49.3025 203.013C44.7869 204.925 41.6607 207.01 42.0949 207.966Z" fill="#8E9BAE"/>
<path d="M65.1066 213.441C65.6277 214.484 69.1012 213.355 73.5299 211.616C73.7904 211.53 73.9641 211.443 74.2246 211.356C74.4851 211.269 74.6588 211.182 74.9193 211.095C79.3481 209.27 82.6479 207.793 82.3006 206.663C81.9532 205.707 78.2192 206.315 73.7036 207.966C73.4431 208.053 73.2694 208.14 73.0089 208.227C72.7484 208.314 72.5747 208.401 72.3142 208.488C67.7986 210.4 64.6724 212.486 65.1066 213.441Z" fill="#8E9BAE"/>
<path d="M82.3019 217.787C82.823 218.83 86.2965 217.7 90.7252 215.962C90.9858 215.875 91.1594 215.788 91.4199 215.701C91.6805 215.614 91.8541 215.527 92.1146 215.44C96.5434 213.615 99.8432 212.138 99.4959 211.008C99.1485 210.052 95.4145 210.66 90.8989 212.312C90.6384 212.399 90.4647 212.485 90.2042 212.572C89.9437 212.659 89.77 212.746 89.5095 212.833C84.9939 214.832 81.8677 216.918 82.3019 217.787Z" fill="#8E9BAE"/>
<path d="M25.335 207.967C25.7692 209.009 31.1532 207.271 38.1871 205.099C38.5344 205.012 38.8818 204.838 39.2291 204.751C39.5765 204.664 39.9238 204.577 40.2712 204.403C47.3051 202.144 52.7759 200.493 52.5153 199.363C52.3417 198.32 46.5235 199.015 39.316 201.188C38.9686 201.275 38.6212 201.449 38.2739 201.535C37.9265 201.622 37.5792 201.796 37.2318 201.883C30.1111 204.23 24.9877 207.011 25.335 207.967Z" fill="#8E9BAE"/>
</g>
<defs>
<clipPath id="clip0_10934_1773">
<rect width="287" height="225" fill="white" transform="translate(0.5)"/>
</clipPath>
</defs>
</svg>
