<svg width="136" height="191" viewBox="0 0 136 191" fill="none" xmlns="http://www.w3.org/2000/svg">
<g clip-path="url(#clip0_13233_35318)">
<path fill-rule="evenodd" clip-rule="evenodd" d="M52.5253 190.826C46.5936 190.913 40.5759 191.172 34.5582 190.826C28.5405 190.48 22.3508 189.615 16.5051 187.107C12.2927 185.29 8.25222 182.435 5.58724 178.456C3.26613 174.91 1.97662 170.844 1.63275 166.865C1.28888 162.886 1.20292 159.079 1.28888 155.187C1.37485 147.401 2.06259 139.789 2.49242 132.09C2.92226 125.343 3.18016 118.509 2.92226 111.762C2.75032 107.437 2.57839 103.112 2.14855 98.8729C2.06259 97.8348 1.89065 96.7103 1.80469 95.6722C1.71872 94.6342 1.54678 93.5097 1.46082 92.4716C1.20292 90.309 0.859048 88.2329 0.429212 86.1568C-0.172558 83.5617 -0.0865907 83.8212 1.11695 85.8973C2.23452 87.9734 4.21177 91.9526 5.1574 96.9698C5.84514 101.468 6.27498 105.966 6.44691 110.378C6.61885 114.876 6.61885 119.374 6.44691 123.872C6.01708 132.696 5.1574 141.519 4.72757 150.343C4.55563 155.619 4.55563 161.069 5.1574 166.346C5.50127 168.941 6.18901 171.449 7.22062 173.699C8.25222 175.948 9.79963 178.024 11.6049 179.754C15.7314 183.473 21.3192 185.376 27.079 186.328C32.8388 187.28 38.7706 187.366 44.7023 187.366L55.7061 187.193C59.3167 187.107 63.0133 186.847 66.7099 186.501C72.2118 185.982 77.7996 185.376 83.2156 184.511C88.7175 183.646 94.1334 182.522 99.2914 180.878C101.269 180.273 103.246 179.494 105.137 178.629C106.942 177.764 108.748 176.553 109.607 175.256C110.553 173.699 111.241 171.709 111.757 169.806C112.272 167.816 112.616 165.827 112.874 163.837C113.046 162.021 113.132 160.29 113.132 158.474C113.218 151.727 112.788 149.65 113.992 147.92C114.25 147.574 114.336 147.055 114.594 146.796C115.109 145.931 117.173 148.612 117.602 153.976C117.774 155.965 117.86 157.955 117.86 160.031C117.774 162.021 117.602 164.097 117.259 166.173C116.915 168.249 116.399 170.238 115.711 172.314L115.109 173.872L114.422 175.342C113.906 176.38 113.476 177.245 112.53 178.543C110.639 180.532 108.662 181.57 106.685 182.522C104.707 183.473 102.73 184.165 100.753 184.771C96.7984 185.982 92.7579 186.847 88.7175 187.539C82.6998 188.577 76.6821 189.356 70.6644 189.875C64.6467 190.394 58.629 190.913 52.5253 190.999V190.826Z" fill="#8E9BAE"/>
<path fill-rule="evenodd" clip-rule="evenodd" d="M115.368 160.551C115.368 160.551 133.077 161.935 135.742 170.758C139.611 183.301 95.4236 187.28 83.3023 187.799C69.3756 188.405 72.2985 188.491 72.2985 188.491C72.2985 188.491 102.903 185.204 107.975 180.101C113.047 174.824 115.97 163.751 115.368 160.551Z" fill="#8E9BAE"/>
<path fill-rule="evenodd" clip-rule="evenodd" d="M9.62755 180.1C10.8311 181.57 12.2066 182.868 13.8399 183.906C14.4417 184.338 15.0435 184.598 15.6452 184.944C17.7944 186.155 20.1155 187.02 22.6946 187.279C23.8121 187.452 24.9297 187.452 26.1332 187.452C27.5947 187.539 29.1421 187.452 30.6035 187.971C31.0334 188.144 30.9474 188.577 30.5176 188.923C30.0877 189.269 29.314 189.701 28.5403 189.701C25.6174 189.788 22.5226 189.874 19.3418 188.836C17.5365 188.231 15.5593 187.712 13.8399 186.76C11.9487 185.722 10.2293 184.425 8.68191 182.954C8.25207 182.522 7.73627 182.003 7.30644 181.484C6.8766 180.965 6.44676 180.446 6.1029 179.927C4.89936 178.283 4.03968 176.466 3.43791 174.563C2.92211 173.093 2.49228 171.622 2.32034 170.065C2.32034 169.719 2.23438 169.373 2.23438 169.027C2.32034 167.73 2.57824 167.384 3.18001 167.124C3.35195 167.124 3.43791 167.038 3.60985 167.038C4.03968 166.951 4.38355 167.557 4.55549 168.335C4.64145 168.941 4.81339 169.546 4.89936 170.152L5.41516 171.882C5.75903 173.006 6.18886 174.217 6.79063 175.255C7.47837 177.072 8.50998 178.716 9.62755 180.1Z" fill="#8E9BAE"/>
<path fill-rule="evenodd" clip-rule="evenodd" d="M111.156 71.9703C109.093 71.0188 106.685 70.7592 104.192 70.6727C101.699 70.7592 99.1203 71.0188 96.5413 71.3648C91.3833 72.0568 86.1393 73.0948 80.9813 74.0464L69.6336 76.382C62.9282 77.6795 56.2227 78.8906 49.5173 80.0151C42.8119 81.0532 36.0205 82.0047 29.1431 82.3507C26.1343 82.5237 23.0394 82.6103 19.9446 82.4372C16.8498 82.2642 13.755 82.0047 10.7461 80.9667L9.37066 80.4477C8.94082 80.2747 8.42502 80.0151 7.99518 79.7556C7.47938 79.5826 7.13551 79.1501 6.70568 78.8906C6.44777 78.7176 6.27584 78.5446 6.01794 78.3716C5.846 78.1121 5.5881 77.9391 5.41617 77.6795C4.98633 77.247 4.72843 76.6415 4.5565 76.036C4.38456 75.4304 4.38456 74.7384 4.47053 74.1329C4.64246 72.9218 5.15827 71.9703 5.76004 71.0188C6.96358 69.2887 8.42502 67.9046 10.0584 66.6936C11.6918 65.4825 13.4111 64.4445 15.2164 63.7525C16.42 63.3199 17.0217 63.3199 17.0217 63.5795C17.0217 63.7525 16.5059 64.185 15.7322 64.7905C14.1848 66.0881 11.2619 68.4237 8.76889 71.5378C7.65131 72.9218 7.04954 74.5654 7.39341 75.2574C7.56535 75.69 7.82325 76.036 8.59695 76.4685L9.02679 76.8145C9.19872 76.901 9.37066 76.9875 9.54259 77.074C9.88646 77.247 10.2303 77.5065 10.6602 77.593C13.9269 78.8906 17.7095 79.2366 21.492 79.3231C29.1431 79.4961 36.9661 78.5446 44.7891 77.5065C54.1595 76.2955 63.7878 74.1329 73.2442 72.3163C78.4882 71.2783 83.7322 70.2402 88.9762 69.2887C91.6412 68.8562 94.2202 68.4237 96.8852 67.9911C99.5502 67.6451 102.215 67.2991 105.052 67.3856C108.405 67.4721 112.101 68.2506 114.938 70.4997C116.4 71.6243 117.431 73.0949 118.291 74.6519C119.065 76.2955 119.581 77.9391 119.838 79.6691C120.698 84.8593 120.182 89.9631 119.495 94.8938C118.807 99.911 117.861 104.755 117.259 109.686C117.002 111.589 116.83 113.492 116.744 115.309C116.744 116.26 116.744 117.125 116.744 118.077C116.744 118.509 116.83 118.942 116.916 119.374V119.72L117.002 120.239C117.087 120.585 117.087 120.931 117.087 121.191C117.345 121.883 116.744 122.488 116.314 122.921C115.712 123.267 115.11 123.526 114.337 123.699C113.305 123.872 112.273 123.959 111.328 123.959C109.35 123.959 107.459 123.872 105.568 123.786C103.935 123.699 102.301 123.613 100.582 123.613C94.3922 123.353 92.6728 123.44 91.2973 123.353C90.9535 123.353 90.6096 123.44 90.3517 123.353C90.1798 123.353 90.1798 123.267 90.2657 123.007C90.4377 122.748 90.7815 122.488 91.2973 122.142C92.4149 121.537 94.3062 121.018 96.6273 120.845C100.152 120.499 103.591 120.758 107.029 120.758C108.749 120.758 110.468 120.845 112.101 120.758C112.531 120.758 112.875 120.672 113.219 120.672C113.391 120.672 113.649 120.585 113.735 120.585C113.821 120.585 113.821 120.499 113.735 120.326V120.239C113.735 120.239 113.735 120.239 113.735 120.066L113.649 119.288C113.563 118.769 113.563 118.336 113.563 117.817C113.477 116.866 113.563 115.914 113.563 114.963C113.649 113.06 113.821 111.243 114.079 109.426C114.508 105.793 115.196 102.247 115.712 98.6999C116.486 93.5097 117.259 88.233 117.002 83.2158C116.83 80.7072 116.4 78.2851 115.454 76.209C114.766 74.4789 113.219 72.9218 111.156 71.9703Z" fill="#8E9BAE"/>
<path fill-rule="evenodd" clip-rule="evenodd" d="M106.684 141.26C108.49 141.174 110.381 141.001 112.186 140.828L114.937 140.482L117.344 140.136C117.43 140.136 117.516 140.136 117.602 140.136C117.688 140.049 117.688 139.963 117.688 139.876V139.444L117.774 138.406C117.86 137.8 117.946 137.108 118.118 136.416L118.548 134.599L119.408 131.053C120.009 128.717 120.525 126.382 120.869 123.959C121.213 121.883 121.471 119.721 121.557 117.645C121.557 116.347 121.471 114.963 121.213 113.838C121.041 113.233 120.869 112.714 120.611 112.368C120.353 112.022 120.009 111.935 119.494 111.935C118.806 112.022 118.634 111.589 119.236 110.897C119.58 110.638 120.267 110.119 121.299 110.465C122.331 110.724 123.104 111.762 123.448 112.627C124.05 114.271 124.136 115.828 124.222 117.299C124.308 118.769 124.222 120.24 124.05 121.71C123.792 124.565 123.19 127.42 122.502 130.188C122.073 131.831 121.729 133.561 121.385 135.291C121.213 136.156 121.041 137.021 120.955 137.713C120.869 138.146 120.869 138.492 120.869 138.925L120.783 140.395C120.697 141.174 120.525 141.866 120.181 142.558C119.494 142.817 118.72 142.99 118.032 143.163C117.001 143.336 116.141 143.509 115.109 143.682C113.218 143.942 111.327 144.201 109.435 144.374C107.114 144.634 104.707 144.807 102.386 144.893C100.581 144.98 98.7755 144.98 96.9702 144.807C96.0246 144.72 95.1649 144.634 94.2193 144.461C93.2736 144.288 92.242 144.028 91.2964 143.25C90.0928 142.125 89.3191 140.741 88.7174 139.444C88.1156 138.146 87.6858 136.762 87.3419 135.378C87.1699 134.772 87.084 134.167 86.998 133.475C86.8261 132.264 86.9121 131.485 87.084 130.88C87.3419 130.274 87.6858 130.015 88.2016 129.842C88.4595 129.755 88.6314 129.669 88.8893 129.582C89.2332 129.496 89.577 129.755 89.8349 130.101C90.0928 130.447 90.3507 131.053 90.5227 131.745C90.9525 133.907 91.5543 136.243 92.4139 138.146C92.8438 139.098 93.3596 140.049 93.7894 140.395C93.6175 140.568 94.1333 139.963 93.4455 140.828L93.5315 140.741L93.7894 140.482C93.7894 140.482 93.7894 140.482 93.8754 140.482C93.9614 140.568 94.2193 140.568 94.3912 140.655C94.5631 140.741 94.907 140.741 95.0789 140.828C95.3368 140.914 95.5947 140.914 95.8526 140.914C97.486 141.087 99.2913 141.174 101.183 141.174C102.988 141.174 104.879 141.087 106.684 140.914V141.26Z" fill="#8E9BAE"/>
<path fill-rule="evenodd" clip-rule="evenodd" d="M100.925 144.289C102.128 144.375 103.418 144.462 104.622 144.375C105.051 144.375 105.567 144.289 105.997 144.289C107.63 144.202 109.264 144.116 110.897 143.943C111.585 143.856 112.359 143.683 113.046 143.597C113.992 143.424 114.852 143.164 115.883 143.251C116.485 143.337 115.969 145.154 114.938 145.414C113.132 145.846 111.241 146.192 109.264 146.279C108.06 146.279 106.943 146.625 105.739 146.711C104.45 146.884 103.074 146.884 101.785 146.884C100.925 146.884 100.151 146.884 99.2916 146.798C98.6898 146.711 98.088 146.711 97.4003 146.538C96.7985 146.452 96.1967 146.279 95.509 146.106C94.9932 146.019 94.5634 145.846 94.0476 145.673C93.7897 145.587 93.5318 145.5 93.3598 145.414C93.1019 145.241 92.93 145.154 92.6721 144.981C92.5002 144.808 92.2423 144.721 92.0703 144.548C91.4685 143.856 91.4686 143.51 91.8124 143.078C91.8984 142.991 91.9844 142.905 92.0703 142.818C92.4142 142.559 92.844 142.559 93.2739 142.732C94.5634 143.337 95.7669 143.51 97.2283 143.943C97.7442 144.029 98.3459 144.202 98.9477 144.202C99.7214 144.116 100.323 144.202 100.925 144.289Z" fill="#8E9BAE"/>
<path fill-rule="evenodd" clip-rule="evenodd" d="M18.8273 89.7901C18.3114 89.7901 17.7097 89.7036 17.1939 89.7036C17.0219 89.7036 16.764 89.7036 16.5921 89.7036C15.9044 89.6171 15.1307 89.5306 14.4429 89.3576C14.0991 89.2711 13.8412 89.2711 13.4973 89.1846C13.0675 89.0981 12.7236 89.0116 12.2937 88.8386C12.0358 88.7521 12.5517 88.1465 12.9815 88.233C13.7552 88.3195 14.5289 88.4061 15.3026 88.5791C15.7324 88.6656 16.2482 88.5791 16.764 88.5791C17.2798 88.5791 17.8816 88.5791 18.3974 88.5791C18.7413 88.5791 19.0852 88.5791 19.429 88.5791C19.9448 88.5791 20.4606 88.5791 20.9764 88.4926C21.4063 88.4061 21.7501 88.3195 22.094 88.3195C22.18 88.3195 22.2659 88.3195 22.3519 88.3195C22.6958 88.3195 22.7817 88.406 22.8677 88.6656C22.8677 88.7521 22.9537 88.8386 22.9537 88.8386C23.0396 89.0981 22.8677 89.2711 22.6958 89.3576C22.008 89.6171 21.3203 89.8766 20.5466 89.8766C19.9448 89.8766 19.429 89.8766 18.8273 89.7901Z" fill="#8E9BAE"/>
<path fill-rule="evenodd" clip-rule="evenodd" d="M34.0421 178.456C33.5263 178.456 32.9245 178.37 32.4087 178.37C32.2368 178.37 31.9789 178.37 31.8069 178.37C31.1192 178.283 30.3455 178.197 29.6578 178.024C29.3139 177.937 29.056 177.937 28.7121 177.851C28.2823 177.764 27.9384 177.678 27.5086 177.505C27.2507 177.418 27.7665 176.813 28.1963 176.899C28.97 176.986 29.7437 177.072 30.5174 177.245C30.9473 177.332 31.4631 177.245 31.9789 177.245C32.4947 177.245 33.0965 177.245 33.6123 177.245C33.9561 177.245 34.3 177.245 34.6439 177.245C35.1597 177.245 35.6755 177.245 36.1913 177.159C36.6211 177.072 36.965 176.986 37.3088 176.986C37.3948 176.986 37.4808 176.986 37.5667 176.986C37.9106 176.986 37.9966 177.072 38.0825 177.332C38.0825 177.418 38.1685 177.505 38.1685 177.505C38.2545 177.764 38.0825 177.937 37.9106 178.024C37.2229 178.283 36.5351 178.543 35.7614 178.543C35.1597 178.543 34.5579 178.543 34.0421 178.456Z" fill="#8E9BAE"/>
<path fill-rule="evenodd" clip-rule="evenodd" d="M76.166 84.947C75.6502 85.0335 75.0485 85.0335 74.5327 85.12C74.3607 85.12 74.1028 85.2065 73.9309 85.2065C73.2432 85.2065 72.4695 85.2065 71.7817 85.2065C71.4379 85.2065 71.18 85.2065 70.8361 85.2065C70.4063 85.2065 70.0624 85.2065 69.6325 85.0335C69.3746 84.947 69.8045 84.3415 70.2343 84.3415C71.008 84.3415 71.7817 84.255 72.5554 84.255C73.0712 84.255 73.5011 84.0819 74.0169 83.9954C74.5327 83.9089 75.0485 83.8224 75.6502 83.7359C75.9941 83.6494 76.338 83.6494 76.5959 83.5629C77.1117 83.4764 77.6275 83.3899 78.0573 83.2169C78.4012 83.1304 78.831 82.9574 79.1749 82.8709C79.2609 82.8709 79.3468 82.7844 79.4328 82.7844C79.7767 82.6979 79.8626 82.7844 80.0346 83.0439C80.0346 83.1304 80.1205 83.1304 80.1205 83.2169C80.2065 83.4764 80.1205 83.6494 79.9486 83.8224C79.3468 84.1685 78.6591 84.5145 77.9714 84.6875C77.2836 84.774 76.7678 84.8605 76.166 84.947Z" fill="#8E9BAE"/>
<path fill-rule="evenodd" clip-rule="evenodd" d="M67.1407 178.631C66.6249 178.717 66.0231 178.717 65.5073 178.804C65.3353 178.804 65.0774 178.89 64.9055 178.89C64.2178 178.89 63.4441 178.89 62.7563 178.89C62.4125 178.89 62.1546 178.89 61.8107 178.89C61.3809 178.89 61.037 178.89 60.6072 178.717C60.3493 178.631 60.7791 178.025 61.2089 178.025C61.9826 178.025 62.7563 177.939 63.53 177.939C64.0458 177.939 64.4757 177.766 64.9915 177.679C65.5073 177.593 66.0231 177.506 66.6249 177.42C66.9687 177.333 67.3126 177.333 67.5705 177.247C68.0863 177.16 68.6021 177.074 69.0319 176.901C69.3758 176.814 69.8056 176.641 70.1495 176.554C70.2355 176.554 70.3214 176.468 70.4074 176.468C70.7513 176.381 70.8372 176.468 71.0092 176.727C71.0092 176.814 71.0951 176.814 71.0951 176.901C71.1811 177.16 71.0951 177.333 70.9232 177.506C70.3214 177.852 69.6337 178.198 68.946 178.371C68.1723 178.544 67.6565 178.631 67.1407 178.631Z" fill="#8E9BAE"/>
<path fill-rule="evenodd" clip-rule="evenodd" d="M93.447 81.833C92.8453 81.833 92.3295 81.833 91.7277 81.833C91.5558 81.833 91.2979 81.833 91.1259 81.833C90.3522 81.833 89.6645 81.7465 88.8908 81.833C88.5469 81.833 88.203 81.9195 87.9451 81.9195C87.5153 82.006 87.0855 82.0925 86.6556 82.006C86.3977 82.006 86.6556 81.314 87.0855 81.141C87.9451 80.968 88.7188 80.795 89.6645 80.795C90.1803 80.795 90.6961 80.622 91.2119 80.622C91.8137 80.5355 92.3295 80.5355 92.9312 80.5355C93.2751 80.5355 93.619 80.5355 93.9628 80.449C94.4786 80.449 95.0804 80.3625 95.5962 80.3625C96.026 80.3625 96.4559 80.276 96.7997 80.1895C96.8857 80.1895 96.9717 80.1895 97.0577 80.1895C97.4015 80.1895 97.4875 80.276 97.5735 80.622C97.5735 80.7085 97.5735 80.795 97.6594 80.8815C97.6594 81.141 97.5735 81.314 97.3156 81.487C96.6278 81.7465 95.8541 82.006 95.0804 82.006C94.5646 81.9195 94.0488 81.9195 93.447 81.833Z" fill="#8E9BAE"/>
<path fill-rule="evenodd" clip-rule="evenodd" d="M61.982 78.1132C56.1362 79.0647 50.2045 80.0163 44.2728 80.7083C42.1236 80.9678 39.9744 81.3138 37.7393 81.4868C33.8707 81.7463 30.0022 81.9194 26.1337 81.7463C22.2652 81.5733 18.3107 81.2273 14.5281 79.6703C13.6685 79.4107 12.8948 78.8917 12.1211 78.4592C11.3473 77.8537 10.5736 77.4212 9.88591 76.5561C9.19817 75.6911 8.8543 74.5665 9.02624 73.442C9.1122 72.404 9.45607 71.4524 9.97188 70.5874C11.1754 68.5113 12.8948 66.9542 14.6141 65.5702C16.4194 64.2726 18.3967 63.0616 20.5458 62.456C22.0073 62.11 21.8353 62.629 20.9757 63.4941C20.116 64.3591 18.6546 65.8297 16.8492 67.3002C15.2159 68.5978 13.8404 70.1549 12.8088 71.6254C12.293 72.404 12.0351 73.1825 11.9491 73.7015C11.9491 74.2205 12.0351 74.5666 12.6369 75.0856C13.9264 76.2966 15.8176 76.9886 17.7089 77.5942C19.6862 78.1132 21.7494 78.4592 23.8986 78.7187C29.0566 79.2377 34.5585 78.7187 39.8884 78.1997C45.7342 77.5942 51.6659 76.7291 57.5117 75.7776C61.1223 75.1721 64.7329 74.5665 68.3436 73.8745C73.7595 72.8365 79.2614 71.7984 84.6773 70.6739C88.8897 69.8088 92.9302 68.7708 97.1425 67.9923C98.0882 67.8193 98.9479 67.6463 99.8935 67.4733C103.418 66.9542 104.536 67.3002 105.395 67.8193C105.567 67.9058 105.825 68.0788 105.911 68.1653C106.255 68.5978 104.88 69.1168 102.473 69.8088C98.8619 70.7604 95.0793 71.5389 91.2108 72.4905C87.3423 73.269 83.4738 74.134 79.5193 74.9126C73.7595 75.9506 67.9137 77.1617 61.982 78.1132Z" fill="#8E9BAE"/>
<path fill-rule="evenodd" clip-rule="evenodd" d="M10.9172 67.473C29.4001 58.1306 50.2042 54.584 70.5784 51.2104C75.4785 50.3453 80.6365 49.5668 85.4507 50.7778C90.3508 51.9889 94.9071 55.7085 95.5089 60.7258L95.3369 67.3865L45.0462 78.632L18.3104 79.5835L10.0575 79.67L7.47852 73.7878L10.9172 67.473Z" fill="#24252A"/>
<path d="M10.9177 67.4734C10.7457 67.3869 10.2299 67.8194 9.45623 68.7709C9.11237 69.2899 8.59656 69.8955 8.16673 70.5875C7.90883 70.9335 7.65092 71.366 7.39302 71.7986C7.30706 71.8851 7.22109 72.0581 7.13512 72.1446C7.04915 72.3176 6.87722 72.4906 6.79125 72.6636C6.61932 73.0096 6.36142 73.3556 6.10352 73.7016C6.36142 74.3072 6.53335 74.9127 6.79125 75.5182C6.96319 75.9507 7.13512 76.4698 7.30706 76.9888C7.47899 77.5078 7.73689 78.0268 7.90883 78.5458C8.25269 79.3244 8.59656 80.1894 8.94043 81.0544C9.8001 81.0544 10.6598 81.0544 11.5194 81.0544C12.1212 81.0544 12.637 81.0544 13.2388 81.0544C14.4423 81.0544 15.6459 81.1409 16.9354 81.1409C19.5144 81.1409 22.2653 81.1409 25.1882 81.0544C28.1111 80.9679 31.2919 80.9679 34.5586 80.8814C37.9114 80.7949 41.522 80.7084 45.2186 80.6219C51.4942 79.2379 58.1996 77.8538 65.3349 76.2967C72.3842 74.7397 79.7774 73.0961 87.4284 71.4525C90.3513 70.7605 93.2742 70.155 96.1111 69.463L97.5725 69.1169L97.7445 63.6672L97.8305 61.9371V61.0721V60.4666C97.8305 60.2071 97.7445 59.9476 97.7445 59.7745C97.4006 57.6985 96.5409 55.7954 95.3374 54.2383C94.1339 52.6813 92.7584 51.4702 91.211 50.4322C89.6636 49.4806 88.0302 48.7021 86.3109 48.2696C84.5915 47.8371 82.8722 47.5775 81.2388 47.5775C77.8861 47.491 74.7913 47.9236 71.9543 48.3561C69.1174 48.8751 66.2805 49.3941 63.5296 49.8266C52.6117 51.8162 42.8974 53.8923 34.9885 56.3144C31.034 57.5255 27.4234 58.7365 24.4145 59.9476C21.3197 61.1586 18.8267 62.3697 16.7634 63.4077C15.7318 63.9267 14.8722 64.4457 14.0985 64.8783C13.3248 65.3108 12.723 65.7433 12.2072 66.0893C11.2615 66.8678 10.8317 67.3004 10.9177 67.4734C11.3475 68.2519 20.2021 63.7537 36.106 59.9476C44.015 57.958 53.6433 56.2279 64.4752 54.4978C67.2262 54.0653 69.9771 53.6328 72.814 53.2003C75.6509 52.7678 78.4878 52.4217 81.1528 52.5947C82.5283 52.6813 83.9038 52.8543 85.1933 53.2003C86.3968 53.5463 87.6863 54.0653 88.8039 54.8438C91.039 56.2279 92.7584 58.3905 93.1023 60.8126C93.1023 61.0721 93.1023 60.8126 93.1023 61.2451V62.1102V63.8402V65.3973C90.9531 65.8298 88.8899 66.3488 86.6547 66.8679C79.0037 68.5979 71.6105 70.328 64.5612 71.8851C57.5978 73.5286 51.0643 75.0857 44.8747 76.4698C41.2641 76.6428 37.8254 76.8158 34.5586 76.9888C31.2919 77.1618 28.1111 77.3348 25.1882 77.5078C22.2653 77.6808 19.5144 77.8538 16.9354 78.0268C15.6459 78.1133 14.4423 78.1133 13.2388 78.1998C12.637 78.1998 12.1212 78.2863 11.5194 78.2863C11.2615 78.2863 11.0036 78.3728 10.7457 78.3728C10.6598 78.2863 10.5738 78.1133 10.5738 78.0268L10.4878 77.8538C10.4878 77.7673 10.4019 77.7673 10.3159 77.5943C10.058 77.0753 9.8001 76.5563 9.5422 76.1237C9.2843 75.6047 9.0264 75.1722 8.85446 74.7397L8.7685 74.5667L8.85446 74.3937L8.7685 74.2207C8.68253 74.1342 8.59656 73.9611 8.59656 73.8746C8.68253 73.7016 8.68253 73.5286 8.7685 73.4421L8.85446 73.1826C8.94043 73.0961 8.94043 72.9231 9.0264 72.8366C9.19833 72.4041 9.45623 71.9716 9.62817 71.539C9.97204 70.7605 10.3159 69.982 10.4878 69.463C10.9177 68.2519 11.0896 67.5599 10.9177 67.4734Z" fill="#8E9BAE"/>
<path d="M95.5087 132.438C95.7666 132.438 95.9386 132.005 96.1965 131.4C96.4544 130.794 96.7123 130.016 97.4 129.324C97.7439 128.978 98.0877 128.718 98.5176 128.545C98.9474 128.372 99.4632 128.372 99.893 128.545C100.323 128.718 100.753 128.978 101.183 129.497C101.612 130.016 101.956 130.708 102.214 131.486C102.3 131.832 102.386 132.092 102.472 132.438C102.558 132.784 102.558 133.043 102.644 133.476C102.73 133.908 102.73 134.341 102.73 134.687C102.73 135.033 102.644 135.379 102.73 135.292V135.379C102.558 135.465 102.3 135.465 101.956 135.465C101.612 135.465 101.269 135.465 100.925 135.379C100.581 135.292 100.237 135.292 99.893 135.206C99.2913 135.119 98.7755 134.946 98.3456 134.687C97.486 134.254 96.9702 133.735 96.6263 133.216C96.1105 132.784 95.7666 132.351 95.5087 132.438C95.2508 132.438 95.0789 132.87 95.0789 133.649C95.0789 134.427 95.6806 135.725 96.8842 136.676C97.486 137.109 98.2597 137.541 99.0334 137.801C99.4632 137.974 99.8071 138.06 100.237 138.147C100.667 138.233 101.097 138.32 101.612 138.406C102.128 138.493 102.644 138.493 103.418 138.32C103.848 138.233 104.191 138.06 104.621 137.801C104.965 137.541 105.223 137.195 105.481 136.849C105.653 136.503 105.825 135.984 105.911 135.638C105.997 135.292 105.997 135.033 105.997 134.687C105.997 134.081 105.997 133.562 105.911 133.043C105.911 132.697 105.825 132.178 105.739 131.746C105.653 131.313 105.567 130.881 105.395 130.448C105.051 129.41 104.449 128.372 103.762 127.421C102.988 126.555 101.87 125.777 100.667 125.604C99.4632 125.431 98.4316 125.604 97.486 126.123C96.5403 126.555 95.9385 127.334 95.5947 128.026C94.821 129.41 94.821 130.621 94.9929 131.4C94.9929 132.092 95.2508 132.438 95.5087 132.438Z" fill="#6F2FCE"/>
<path d="M5.24459 49.9119C5.76039 49.8254 6.10426 49.0468 6.70603 48.7008C6.96393 48.5278 7.13587 48.6143 7.3078 48.7008C7.3078 48.7873 7.39377 48.7873 7.47974 48.9603C7.5657 49.1333 7.73764 49.3928 7.82361 49.7389C7.82361 49.8254 7.90957 49.9984 7.90957 50.0849C7.90957 50.1714 7.90957 50.1714 7.90957 50.2579V50.4309V50.5174C7.90957 50.5174 7.90957 50.5174 7.90957 50.6039C7.90957 50.6039 7.90957 50.6039 7.82361 50.6039C7.3078 50.6039 6.96393 50.5174 6.70603 50.4309C6.44813 50.3444 6.19023 50.2579 6.0183 50.0849C5.67443 49.9984 5.41653 49.8254 5.24459 49.9119C4.98669 49.9119 4.81476 50.0849 4.72879 50.5174C4.64282 50.8634 4.72879 51.5554 5.15862 52.161C5.58846 52.7665 6.36216 53.2855 7.22184 53.4585C7.3078 53.4585 7.47974 53.545 7.65167 53.545C7.82361 53.545 7.99554 53.6315 8.16747 53.6315C8.51134 53.718 8.85521 53.718 9.19908 53.6315C9.88682 53.545 10.4886 53.199 10.9184 52.68C11.3483 52.0745 11.4342 51.2094 11.3483 50.2579C11.3483 50.0849 11.3483 49.9119 11.2623 49.8254C11.2623 49.6524 11.1763 49.5658 11.1763 49.4793C11.0904 49.2198 11.0904 48.9603 11.0044 48.7008C10.7465 48.0953 10.4886 47.4898 9.97278 46.9707C9.45698 46.4517 8.76924 45.9327 7.99554 45.8462C6.44813 45.5867 5.15862 46.5382 4.81476 47.4033C4.38492 48.2683 4.47089 48.9603 4.64282 49.3928C4.72879 49.7389 4.98669 49.9119 5.24459 49.9119Z" fill="#6F2FCE"/>
<path d="M46.0786 31.4013C46.5944 31.3148 46.9383 30.5362 47.5401 30.1902C47.798 30.0172 47.9699 30.1037 48.1418 30.1902C48.1418 30.2767 48.2278 30.2767 48.3138 30.4497C48.3997 30.6227 48.5717 30.8823 48.6576 31.2283C48.6576 31.3148 48.7436 31.4878 48.7436 31.5743C48.7436 31.6608 48.7436 31.6608 48.7436 31.7473V31.9203C48.7436 31.9203 48.8296 32.0068 48.7436 32.0933C48.7436 32.0933 48.7436 32.0933 48.6576 32.1798C48.6576 32.1798 48.6576 32.1798 48.4857 32.1798H48.3138C48.0559 32.1798 47.8839 32.1798 47.712 32.0933C47.3681 32.0068 47.1102 31.9203 46.8523 31.7473C46.5944 31.4878 46.3365 31.3148 46.0786 31.4013C45.8207 31.4013 45.6488 31.6608 45.5628 32.0933C45.4769 32.6123 45.7348 33.3909 46.4225 33.9964C46.7664 34.2559 47.1962 34.5154 47.626 34.6884C47.712 34.6884 47.8839 34.7749 47.9699 34.7749C48.0559 34.7749 48.2278 34.8614 48.3997 34.8614C48.7436 34.9479 49.1734 35.0344 49.5173 35.0344C50.291 35.0344 51.0647 34.7749 51.4946 34.0829C52.0104 33.4774 52.0963 32.5258 52.0104 31.5743C52.0104 31.4013 52.0104 31.2283 51.9244 31.1418C51.9244 30.9688 51.8384 30.8823 51.8384 30.7958C51.7525 30.5362 51.7525 30.2767 51.6665 30.0172C51.4086 29.4117 51.1507 28.8062 50.6349 28.2871C50.1191 27.7681 49.4314 27.2491 48.6576 27.1626C47.1102 26.9031 45.8207 27.8546 45.4769 28.7197C45.047 29.5847 45.133 30.2767 45.3049 30.7092C45.5628 31.3148 45.8207 31.4013 46.0786 31.4013Z" fill="#8E9BAE"/>
<path d="M48.7428 26.3841C49.0007 26.2976 49.0007 25.6056 48.7428 24.5675C48.5708 23.5295 48.141 22.0589 48.3989 20.5018C48.5708 19.8098 48.9147 18.9448 49.4305 18.4258C49.6884 18.1663 50.0323 17.9932 50.2902 17.9067C50.6341 17.8202 51.0639 17.8202 51.6657 17.8202C52.0095 17.8202 52.3534 17.8202 52.6973 17.8202C53.1271 17.8202 53.5569 17.8202 53.9008 17.7337C54.7605 17.5607 55.5342 17.3012 56.3079 16.9552C57.8553 16.1767 59.2308 14.9656 60.1764 13.4086C60.5203 12.7165 60.8641 12.111 61.0361 11.3325C61.294 10.6404 61.3799 9.8619 61.3799 9.08337C61.3799 7.18029 60.7782 5.36371 59.8325 3.97966C58.8869 2.5956 57.5974 1.47105 56.136 0.779022C54.7605 0.0869935 53.1271 -0.172517 51.8376 0.0869935C50.4621 0.260001 49.2586 0.692519 48.3129 1.29804C46.4217 2.50909 45.476 4.06616 45.0462 5.19071C44.7023 6.31525 44.8743 7.00728 45.0462 7.09379C45.3041 7.18029 45.648 6.66127 46.2497 5.88274C46.8515 5.1042 47.8831 4.06616 49.3445 3.37413C50.892 2.6821 52.8692 2.42259 54.6745 3.46063C56.4798 4.41217 58.0272 6.66127 57.9413 8.99687C57.9413 9.42938 57.8553 9.94841 57.7693 10.3809C57.6834 10.8134 57.4255 11.246 57.1676 11.6785C56.5658 12.7165 55.6201 13.5816 54.6745 14.1006C54.1587 14.3601 53.6429 14.5331 53.1271 14.7061C52.6113 14.7926 52.1815 14.8791 51.4078 14.8791C50.72 14.8791 49.8603 14.8791 49.0007 15.2251C48.141 15.5711 47.5392 16.0902 47.0234 16.6957C46.0778 17.9067 45.7339 19.2043 45.648 20.4153C45.562 21.6264 45.8199 22.5779 46.1638 23.3565C46.4217 24.135 46.7655 24.7405 47.1094 25.2595C48.055 26.1246 48.4849 26.5571 48.7428 26.3841Z" fill="#8E9BAE"/>
<path d="M88.6314 33.6504C87.5139 33.6504 87.084 35.3805 86.998 37.6296C86.998 37.7161 86.998 37.8891 86.998 37.9756C86.998 38.0621 86.998 38.2351 86.998 38.3216C87.084 40.5707 87.5139 42.3008 88.6314 42.3008C89.663 42.3008 90.1788 40.5707 90.2648 38.3216C90.2648 38.2351 90.2648 38.0621 90.2648 37.9756C90.2648 37.8891 90.2648 37.7161 90.2648 37.6296C90.1788 35.3805 89.663 33.6504 88.6314 33.6504Z" fill="#6F2FCE"/>
<path d="M108.147 33.5632C107.287 32.8712 104.88 35.0338 102.043 38.0614C101.871 38.2344 101.785 38.4074 101.613 38.4939C101.441 38.6669 101.355 38.8399 101.183 38.9264C98.4324 42.0406 96.5411 44.7222 97.4008 45.5007C98.1745 46.1927 100.753 44.2897 103.676 41.1755C103.848 41.0025 103.934 40.8295 104.106 40.743C104.278 40.57 104.364 40.397 104.536 40.3105C107.287 37.1099 108.92 34.2552 108.147 33.5632Z" fill="#6F2FCE"/>
<path d="M123.535 49.6533C123.535 48.5288 119.322 48.0963 113.906 48.0098C113.648 48.0098 113.39 48.0098 113.132 48.0098C112.875 48.0098 112.617 48.0098 112.359 48.0098C106.943 48.0963 102.73 48.5288 102.73 49.6533C102.73 50.6914 106.857 51.2104 112.359 51.2969C112.617 51.2969 112.875 51.2969 113.132 51.2969C113.39 51.2969 113.648 51.2969 113.906 51.2969C119.322 51.2104 123.535 50.6914 123.535 49.6533Z" fill="#6F2FCE"/>
</g>
<defs>
<clipPath id="clip0_13233_35318">
<rect width="136" height="191" fill="white"/>
</clipPath>
</defs>
</svg>
