<svg viewBox="0 0 26 25" fill="none" xmlns="http://www.w3.org/2000/svg">
<path d="M13 0C16.4838 0 19.5787 1.57125 21.7825 3.51625C22.8887 4.4925 23.8 5.58875 24.4425 6.68C25.0737 7.75125 25.5 8.9125 25.5 10C25.5 11.0875 25.075 12.2487 24.4425 13.32C23.8 14.4113 22.8887 15.5075 21.7825 16.4837C19.5787 18.4288 16.4825 20 13 20C9.51625 20 6.42125 18.4288 4.2175 16.4837C3.11125 15.5075 2.2 14.4113 1.5575 13.32C0.925 12.2487 0.5 11.0875 0.5 10C0.5 8.9125 0.925 7.75125 1.5575 6.68C2.2 5.58875 3.11125 4.4925 4.2175 3.51625C6.42125 1.57125 9.5175 0 13 0ZM13 2.5C10.27 2.5 7.74 3.74125 5.8725 5.39C4.9425 6.21 4.2075 7.10625 3.71125 7.94875C3.20375 8.81125 3 9.525 3 10C3 10.475 3.20375 11.1887 3.71125 12.0512C4.2075 12.8938 4.9425 13.7887 5.8725 14.61C7.74 16.2587 10.27 17.5 13 17.5C15.73 17.5 18.26 16.2587 20.1275 14.61C21.0575 13.7887 21.7925 12.8938 22.2887 12.0512C22.7962 11.1887 23 10.475 23 10C23 9.525 22.7962 8.81125 22.2887 7.94875C21.7925 7.10625 21.0575 6.21125 20.1275 5.39C18.26 3.74125 15.73 2.5 13 2.5ZM13 6.25C13.11 6.25 13.2188 6.25458 13.3263 6.26375C13.0549 6.73982 12.9474 7.29187 13.0204 7.83497C13.0934 8.37808 13.3429 8.88215 13.7304 9.26964C14.1178 9.65713 14.6219 9.90657 15.165 9.97958C15.7081 10.0526 16.2602 9.94514 16.7362 9.67375C16.802 10.4265 16.6388 11.1815 16.2681 11.8399C15.8974 12.4982 15.3364 13.0293 14.6588 13.3634C13.9811 13.6975 13.2183 13.8192 12.4703 13.7123C11.7223 13.6055 11.024 13.2752 10.467 12.7648C9.9099 12.2543 9.52003 11.5874 9.34845 10.8516C9.17686 10.1158 9.23155 9.34527 9.50537 8.64105C9.77918 7.93683 10.2593 7.33175 10.8829 6.90509C11.5065 6.47843 12.2444 6.25009 13 6.25Z" fill="#8E9BAE"/>
</svg>
