<svg width="93" height="98" viewBox="0 0 93 98" fill="none" xmlns="http://www.w3.org/2000/svg">
<g clip-path="url(#clip0_10897_1636)">
<path d="M86.2501 97.9136C86.3364 97.7843 85.8186 97.3103 84.8694 96.5346C83.9202 95.7157 82.41 94.6814 80.5115 93.4748C78.6131 92.2681 76.2831 90.8459 73.5648 89.5099C70.8897 88.0878 67.7831 86.7087 64.4608 85.4589C63.7704 85.2004 63.1232 84.9418 62.476 84.7263C61.7857 84.5108 61.1385 84.2522 60.4481 84.0368C57.0395 82.9163 53.8034 82.0544 50.8263 81.4079C49.3593 81.0631 47.9354 80.8477 46.5979 80.5891C45.2603 80.3736 44.0522 80.2012 42.9304 80.0719C40.6867 79.8134 38.8745 79.6841 37.6233 79.6841C36.372 79.6841 35.6816 79.7272 35.6816 79.8565C35.6816 79.9858 36.3288 80.1581 37.5801 80.3736C38.8314 80.5891 40.6004 80.8908 42.8009 81.2355C43.8796 81.451 45.0877 81.6665 46.3821 81.9251C47.6765 82.2267 49.0573 82.4853 50.5243 82.8732C53.4583 83.5627 56.608 84.4677 59.9735 85.5882C60.6638 85.8037 61.3111 86.0192 61.9583 86.2778C62.6055 86.5363 63.2527 86.7518 63.943 87.0104C67.2222 88.2602 70.2857 89.553 72.9608 90.889C75.6791 92.1819 78.009 93.4748 79.9506 94.5522C81.8922 95.6726 83.4455 96.5777 84.5242 97.181C85.5597 97.7413 86.1638 97.9998 86.2501 97.9136Z" fill="#8E9BAE"/>
<path d="M6.17123 8.3605C6.30067 8.44669 6.43011 8.44669 6.64585 8.4036C6.81844 8.3605 7.07732 8.3174 7.29306 8.3174C7.50879 8.3605 7.63823 8.44669 7.72453 8.61908C7.72453 8.70527 7.76767 8.74836 7.72453 8.92075C7.68138 9.05003 7.63823 9.26551 7.55194 9.4379C7.50879 9.52409 7.46565 9.61028 7.4225 9.65338C7.37935 9.73957 7.3362 9.78266 7.24991 9.86886L7.12047 9.99814L7.07732 10.0412C7.07732 10.0412 7.07732 10.0412 7.03417 10.0412L6.90473 9.95505C6.81844 9.86886 6.77529 9.78266 6.73214 9.73957C6.64585 9.61028 6.55956 9.48099 6.47326 9.3948C6.34382 9.17932 6.30067 9.00694 6.30067 8.83455C6.30067 8.61908 6.30067 8.44669 6.17123 8.3605C6.08494 8.27431 5.91235 8.3174 5.69661 8.48979C5.48088 8.66217 5.26514 9.09313 5.30829 9.65338C5.35143 9.91195 5.39458 10.1705 5.52402 10.4291C5.61032 10.5584 5.65346 10.6446 5.69661 10.7739C5.73976 10.817 5.78291 10.9032 5.82605 10.9463C5.8692 11.0324 5.95549 11.1186 6.04179 11.2048C6.34382 11.5496 6.81844 11.8513 7.3362 11.7651C7.59509 11.722 7.81082 11.5927 8.02656 11.4203C8.11285 11.3341 8.24229 11.2048 8.32859 11.1186L8.50118 10.9032C8.58747 10.817 8.67376 10.6446 8.76006 10.5584C8.84635 10.4291 8.93265 10.2998 8.9758 10.1705C9.14838 9.82576 9.23468 9.4379 9.27783 9.05003C9.32097 8.61908 9.19153 8.14502 8.93265 7.80025C8.41488 7.06762 7.55194 6.93834 7.03417 7.15382C6.51641 7.3262 6.25752 7.62787 6.12808 7.88645C6.04179 8.10192 6.08494 8.27431 6.17123 8.3605Z" fill="#6F2FCE"/>
<path d="M71.4954 54.6452C71.6249 54.7314 71.7543 54.7314 71.9701 54.6883C72.1427 54.6452 72.4015 54.6021 72.6173 54.6021C72.833 54.6452 72.9625 54.7314 73.0487 54.9037C73.0487 54.9899 73.0919 55.033 73.0487 55.2054C73.0056 55.3347 72.9625 55.5502 72.8762 55.7226C72.833 55.8088 72.7899 55.8949 72.7467 55.938C72.7036 56.0242 72.6604 56.0673 72.5741 56.1535L72.4447 56.2828L72.4015 56.3259C72.4015 56.3259 72.4015 56.3259 72.3584 56.3259L72.2721 56.1966C72.1858 56.1104 72.1427 56.0242 72.0995 55.9811C72.0132 55.8518 71.9269 55.7226 71.8406 55.6364C71.7112 55.4209 71.668 55.2485 71.668 55.0761C71.6249 54.9037 71.6249 54.7314 71.4954 54.6452C71.4092 54.559 71.2366 54.6021 71.0208 54.7745C70.8051 54.9468 70.5894 55.3778 70.6325 55.938C70.6757 56.1966 70.7188 56.4552 70.8482 56.7138C70.9345 56.8431 70.9777 56.9292 71.0208 57.0585C71.064 57.1016 71.1071 57.1878 71.1503 57.2309C71.1934 57.3171 71.2797 57.4033 71.366 57.4895C71.668 57.8343 72.1427 58.1359 72.6604 58.0497C72.9193 58.0066 73.135 57.8774 73.3508 57.705C73.4371 57.6188 73.5665 57.4895 73.6528 57.4033L73.8254 57.1878C73.9117 57.1016 73.998 56.9292 74.0843 56.8431C74.1706 56.7138 74.2569 56.5845 74.3 56.4552C74.4726 56.1104 74.5589 55.7226 74.602 55.3347C74.6452 54.9037 74.5158 54.4297 74.2569 54.0849C73.7391 53.3523 72.8762 53.223 72.3584 53.4385C71.8406 53.6109 71.5817 53.9125 71.4523 54.1711C71.366 54.3866 71.4092 54.559 71.4954 54.6452Z" fill="#A8A8A8"/>
<path d="M89.7923 38.2687C89.9218 38.3549 90.0512 38.3549 90.2669 38.3118C90.4395 38.2687 90.6984 38.2256 90.9141 38.2256C91.1299 38.2687 91.2593 38.3549 91.3456 38.5273C91.3456 38.6135 91.3888 38.6566 91.3456 38.8289C91.3025 38.9582 91.2593 39.1737 91.173 39.3461C91.1299 39.4323 91.0867 39.5185 91.0436 39.5616C91.0004 39.6478 90.9573 39.6909 90.871 39.7771L90.7416 39.9063L90.6984 39.9494C90.6984 39.9494 90.6984 39.9494 90.6553 39.9494L90.569 39.8202C90.4827 39.734 90.4395 39.6478 90.3964 39.6047C90.3101 39.4754 90.2238 39.3461 90.1375 39.2599C90.0081 39.0444 89.9649 38.872 89.9649 38.6997C89.9218 38.4842 89.9218 38.3118 89.7923 38.2687C89.706 38.1825 89.5334 38.2256 89.3177 38.398C89.102 38.5704 88.8862 39.0013 88.9294 39.5616C88.9725 39.8202 89.0157 40.0787 89.1451 40.3373C89.2314 40.4666 89.2746 40.5528 89.3177 40.6821C89.3609 40.7252 89.404 40.8114 89.4471 40.8545C89.4903 40.9406 89.5766 41.0268 89.6629 41.113C89.9649 41.4578 90.4395 41.7595 90.9573 41.6733C91.2162 41.6302 91.4319 41.5009 91.6476 41.3285C91.7339 41.2423 91.8634 41.113 91.9497 41.0268L92.1223 40.8114C92.2086 40.7252 92.2949 40.5528 92.3812 40.4666C92.4674 40.3373 92.5537 40.208 92.5969 40.0787C92.7695 39.734 92.8558 39.3461 92.8989 38.9582C92.9421 38.5273 92.8126 38.0532 92.5537 37.7085C92.036 36.9758 91.173 36.8465 90.6553 37.062C90.1375 37.2344 89.8786 37.5361 89.7492 37.7946C89.6629 38.0101 89.706 38.1825 89.7923 38.2687Z" fill="#8E9BAE"/>
<path d="M50.0952 54.9471C49.5774 54.7316 49.2322 54.904 49.0597 55.2488C49.0597 55.2488 49.0597 55.2919 49.0165 55.2919C49.0165 55.2919 49.0165 55.3349 48.9734 55.3349C48.8439 55.7228 48.9302 56.0676 49.448 56.2831C49.9226 56.4985 50.2678 56.3262 50.4835 55.9814V55.9383C50.4835 55.9383 50.4835 55.8952 50.5267 55.8952C50.6992 55.5504 50.5698 55.1626 50.0952 54.9471Z" fill="#A8A8A8"/>
<path d="M20.06 42.5351C19.6717 42.9229 19.7148 43.3108 19.9305 43.5694L19.9737 43.6125L20.0168 43.6556C20.2757 43.8711 20.664 43.9142 21.0524 43.5263C21.3976 43.1815 21.3975 42.7937 21.1818 42.492L21.1387 42.4489L21.0955 42.4058C20.7935 42.1472 20.4483 42.1472 20.06 42.5351Z" fill="#A8A8A8"/>
<path d="M29.7249 1.16309C29.466 1.16309 29.2503 1.42166 29.164 1.76643C29.1209 2.15429 29.164 2.67144 29.3366 3.18859L29.3797 3.36098L29.466 3.53336C29.7249 4.05051 30.0269 4.43837 30.329 4.65385C30.631 4.86933 30.933 4.91243 31.1488 4.69695C31.5371 4.35218 31.2782 3.66265 30.9762 2.84382L30.933 2.71454L30.8899 2.58525C30.5447 1.80952 30.2427 1.16309 29.7249 1.16309Z" fill="#A8A8A8"/>
<path d="M51.2588 3.83521C50.8705 3.44735 50.3527 3.61973 49.8781 4.05069C49.8349 4.09379 49.8349 4.09379 49.7918 4.13688C49.7487 4.17998 49.7486 4.17998 49.7055 4.22308C49.274 4.69713 49.1014 5.21428 49.4898 5.60214C49.8349 5.94691 50.3959 5.81762 50.8705 5.38666C50.9136 5.34357 50.9136 5.34357 50.9568 5.30047C50.9999 5.25738 50.9999 5.25738 51.0431 5.21428C51.4745 4.74023 51.604 4.22308 51.2588 3.83521Z" fill="#A8A8A8"/>
<path d="M80.0361 9.35211C79.6478 8.96425 79.432 8.83496 79.3457 8.83496C79.3026 8.92115 79.432 9.09354 79.8635 9.5245C80.2087 9.86926 80.4676 10.0416 80.5539 9.99855C80.5539 9.95545 80.3813 9.73997 80.0361 9.35211Z" fill="#A8A8A8"/>
<path d="M53.7206 90.4142C53.9795 90.9314 55.1445 90.5866 56.6115 90.0695C56.6978 90.0264 56.7409 90.0264 56.8272 89.9833C56.9135 89.9402 56.9566 89.9402 57.0429 89.8971C58.4668 89.3368 59.5886 88.8628 59.4592 88.3025C59.3297 87.7854 58.0353 87.8285 56.482 88.3456C56.3957 88.3887 56.3094 88.3887 56.2663 88.4318C56.18 88.4749 56.0937 88.4749 56.0505 88.518C54.4541 89.1214 53.4617 89.9402 53.7206 90.4142Z" fill="#8E9BAE"/>
<path d="M52.6369 90.0276C52.8526 90.5448 54.0176 90.2862 55.4846 89.769C55.5709 89.7259 55.614 89.726 55.7003 89.6829C55.7866 89.6398 55.8298 89.6398 55.916 89.5967C57.3399 89.0364 58.3754 88.4331 58.2028 87.9159C58.0303 87.4419 56.8221 87.5281 55.312 88.0452C55.2257 88.0883 55.1825 88.0883 55.0962 88.1314C55.01 88.1745 54.9668 88.1745 54.8805 88.2176C53.4135 88.8209 52.4211 89.5536 52.6369 90.0276Z" fill="#8E9BAE"/>
<path d="M51.5587 89.8122C51.8176 90.3293 52.9825 89.9846 54.4495 89.4674C54.5358 89.4243 54.579 89.4243 54.6653 89.3812C54.7516 89.3381 54.7947 89.3381 54.881 89.295C56.3049 88.7348 57.4267 88.2607 57.2972 87.7005C57.1678 87.1833 55.8734 87.2264 54.3201 87.7436C54.2338 87.7867 54.1475 87.7867 54.1044 87.8298C54.0181 87.8729 53.9318 87.8729 53.8886 87.916C52.3353 88.5193 51.3429 89.3812 51.5587 89.8122Z" fill="#8E9BAE"/>
<path d="M50.4831 89.4236C50.6988 89.9408 51.8638 89.6822 53.3308 89.165C53.4171 89.1219 53.4602 89.1219 53.5465 89.0788C53.6328 89.0358 53.676 89.0358 53.7623 88.9927C55.1861 88.4324 56.2217 87.8291 56.0491 87.3119C55.8765 86.8379 54.6684 86.9241 53.1582 87.4412C53.0719 87.4843 53.0288 87.4843 52.9425 87.5274C52.8562 87.5705 52.813 87.5705 52.7267 87.6136C51.2597 88.2169 50.3105 88.9496 50.4831 89.4236Z" fill="#8E9BAE"/>
<path d="M60.0156 48.9137C60.0156 48.9137 61.9572 49.0861 61.9572 52.1028C61.9572 55.1626 63.2948 78.1758 62.0867 81.6235C60.8786 85.0711 61.008 87.9155 61.008 87.9155C63.5537 87.6569 63.8557 87.1828 63.8557 87.1828L63.8989 47.707L60.0156 48.9137Z" fill="#D3D3D3"/>
<path d="M58.375 49.1723L58.8496 87.0105C58.8496 87.8724 59.6694 88.4757 60.4892 88.2171L62.6034 87.6569C63.3801 87.4414 63.941 86.7519 63.941 85.9331V47.707" fill="white"/>
<path d="M63.8968 47.707C63.5948 47.707 63.4222 51.8442 63.2928 58.7396C63.1633 65.5918 63.077 75.1591 63.077 85.9762C63.077 86.2778 62.9476 86.5364 62.6887 86.7088C62.6456 86.7519 62.5593 86.795 62.5161 86.8381C62.473 86.8381 62.4298 86.8812 62.4298 86.8812H62.3867L62.3004 86.9243L61.5237 87.1397L60.7471 87.3552L60.3588 87.4414L60.2725 87.4845H60.2293C60.1862 87.4845 60.1862 87.4845 60.143 87.4845C59.9704 87.4845 59.7547 87.3552 59.7115 87.1828C59.6253 81.8821 59.539 76.8829 59.4527 72.3579C59.3664 67.7466 59.2801 63.6525 59.1506 60.2479C58.9349 53.3957 58.676 49.2585 58.4171 49.2585C58.1582 49.2585 58.0288 53.4388 57.9425 60.291C57.8994 63.7387 57.8994 67.8328 57.9425 72.4441C57.9425 74.7281 57.9857 77.1846 57.9857 79.6842C57.9857 80.9339 57.9857 82.2268 58.0288 83.5628C58.0288 84.2092 58.0288 84.8988 58.0288 85.5452C58.0288 85.89 58.0288 86.1916 58.0288 86.5364V87.0536V87.1828V87.3983C58.0288 87.5276 58.072 87.6569 58.1151 87.7862C58.4171 88.6481 59.2801 89.2514 60.1862 89.2084C60.3156 89.2084 60.4019 89.2083 60.5313 89.1653L60.7039 89.1222L60.7902 89.0791L61.1786 88.9929L61.9552 88.7774L62.7318 88.5619L62.8181 88.5188L62.9476 88.4757C63.0339 88.4326 63.1202 88.3895 63.2065 88.3895C63.3791 88.3033 63.5516 88.2171 63.7242 88.0879C64.3283 87.6138 64.7598 86.8381 64.7598 86.0193C64.7598 75.2022 64.6735 65.6349 64.544 58.7827C64.3714 51.8442 64.1557 47.707 63.8968 47.707Z" fill="#8E9BAE"/>
<path d="M59.3685 89.079L55.9168 87.8292C55.1833 87.6137 54.6655 86.9673 54.6655 86.1916L54.3203 50.2927L58.3761 49.2153L59.3685 89.079Z" fill="#8E9BAE"/>
<path d="M27.0527 45.4228V33.5284C27.0527 27.2795 29.8142 21.4615 34.3877 20.2118C41.205 18.3586 49.1872 26.4176 49.1872 39.4756" fill="#24252A"/>
<path d="M49.233 51.6291C49.5351 51.6291 49.7077 48.2246 49.8371 42.6221C49.8371 41.1999 49.9234 39.6916 49.8803 37.9677C49.8371 36.287 49.6214 34.4339 49.1899 32.5377C48.7584 30.6415 48.0681 28.7021 47.0757 26.8059C46.0402 24.9097 44.7026 23.0566 42.8473 21.5913C42.1138 20.988 41.294 20.4708 40.431 20.083C39.5681 19.6951 38.662 19.3503 37.6696 19.221C36.4615 19.0487 35.2102 19.0918 34.0884 19.4365C32.9234 19.7382 31.8879 20.3846 31.0249 21.1173C29.2991 22.5825 28.2635 24.4787 27.5732 26.3319C26.8828 28.185 26.5808 30.0381 26.4513 31.7188C26.4513 31.9343 26.4082 32.1498 26.4082 32.3653C26.4082 32.5808 26.4082 32.7962 26.4082 33.0117C26.4082 33.4427 26.4082 33.8305 26.4082 34.2184C26.4082 34.9941 26.4513 35.7268 26.4513 36.4163C26.5808 42.0188 26.7965 45.4233 27.0554 45.4233C27.3143 45.4233 27.53 42.0188 27.6595 36.4163C27.7026 35.0372 27.6595 33.4427 27.8321 31.8481C28.0046 30.2536 28.3067 28.5298 28.997 26.8921C29.6442 25.2545 30.6366 23.5737 32.1036 22.367C32.8371 21.7637 33.6569 21.2896 34.563 21.0311C35.4691 20.7725 36.4615 20.7294 37.4539 20.8587C38.2305 20.988 39.0072 21.2466 39.7407 21.5913C40.4742 21.9361 41.1645 22.367 41.8117 22.8842C43.4513 24.1771 44.7026 25.8578 45.6518 27.5816C46.6011 29.3055 47.2483 31.1586 47.7229 32.9255C48.1544 34.6925 48.4133 36.4163 48.4995 38.0539C48.5858 39.6485 48.5858 41.243 48.629 42.6221C48.7584 48.2246 48.9742 51.6291 49.233 51.6291Z" fill="#8E9BAE"/>
<path d="M27.0557 45.4226C26.8831 45.9828 31.2841 47.4481 37.0658 49.0858C37.3679 49.1719 37.6267 49.2581 37.9288 49.3443C38.2308 49.4305 38.4897 49.5167 38.7917 49.6029C44.5734 51.1974 49.1039 52.2317 49.2333 51.6715C49.3628 51.1544 45.0049 49.6891 39.2232 48.0084C38.9212 47.9222 38.6623 47.836 38.3602 47.7498C38.0582 47.6636 37.7993 47.5774 37.4973 47.4912C31.7156 45.8967 27.1851 44.9055 27.0557 45.4226Z" fill="#8E9BAE"/>
<path d="M49.23 51.6287C49.3163 51.8873 53.027 51.1116 59.197 49.6032C62.2604 48.8275 65.9711 47.9225 70.0701 46.8451C74.3848 45.7246 79.1741 44.4748 84.2655 43.1388C84.2655 42.4924 84.2655 41.8029 84.2655 41.1133C84.2655 40.079 84.2655 39.0447 84.2655 38.0104C84.2655 36.9761 84.2655 35.9418 84.2655 34.9075C84.2655 33.1406 84.2655 31.4168 84.2224 29.6929C84.1792 27.9691 84.0066 26.2453 83.7046 24.6507C83.0574 21.4185 81.8493 18.488 80.2528 16.1177C78.6132 13.7475 76.5422 11.9805 74.3848 11.0324C73.3061 10.5584 72.2274 10.2998 71.2351 10.2567C70.2427 10.2136 69.2934 10.3429 68.5168 10.6015C65.7554 11.4634 64.2021 12.0236 64.2884 12.196C64.3315 12.3684 65.928 12.0667 68.7757 11.4203C69.466 11.2479 70.2858 11.2048 71.1919 11.291C72.0549 11.3772 73.0041 11.6358 73.9533 12.1098C75.8518 13.0148 77.664 14.6956 79.131 16.8935C80.5548 19.1345 81.6767 21.8926 82.2376 24.9524C82.5396 26.5038 82.6691 28.0984 82.7122 29.736C82.7122 31.4168 82.7122 33.1406 82.7122 34.9075C82.7122 35.9418 82.7122 36.9761 82.7122 38.0104C82.7122 39.0447 82.7122 40.079 82.7122 41.1133C82.7122 41.3288 82.7122 41.5874 82.7122 41.8029V41.846C78.0955 43.0957 73.7376 44.3024 69.8112 45.3798C65.7122 46.5003 62.0447 47.5346 58.9813 48.4396C52.8112 50.2066 49.1437 51.4133 49.23 51.6287Z" fill="#8E9BAE"/>
<path d="M27.2235 45.4239C27.353 45.9841 31.8403 44.9929 37.5789 43.4846C37.8809 43.3984 38.1398 43.3122 38.4418 43.2691C38.7438 43.1829 39.0027 43.0967 39.3047 43.0536C45.0433 41.4591 49.358 40.0369 49.2286 39.5198C49.0991 39.0026 44.6118 39.9507 38.8733 41.4591C38.5712 41.5453 38.3124 41.6315 38.0103 41.6746C37.7083 41.7608 37.4494 41.8469 37.1474 41.89C31.4088 43.4846 27.0941 44.9498 27.2235 45.4239Z" fill="#8E9BAE"/>
<path d="M59.3682 13.4885C59.2388 12.9283 54.2337 14.0488 47.7617 15.7295C47.4165 15.8157 47.1144 15.9019 46.8124 15.9881C46.5104 16.0743 46.1652 16.1605 45.8632 16.2466C39.4343 18.0136 34.5586 19.565 34.6881 20.1253C34.8175 20.6424 39.8226 19.565 46.2947 17.8843C46.6398 17.7981 46.9419 17.7119 47.2439 17.6257C47.5459 17.5395 47.8911 17.4533 48.1931 17.3671C54.622 15.6002 59.4977 14.0057 59.3682 13.4885Z" fill="#8E9BAE"/>
<path d="M49.2331 52.0172C49.2331 51.8879 48.9311 51.7586 48.4565 51.8448C47.9818 51.8879 47.2915 52.1034 46.558 52.5774C45.8245 53.0084 45.0478 53.6979 44.3143 54.5598C43.5808 55.4218 42.8905 56.3699 42.2001 57.4904C42.0707 57.7058 41.9412 57.9213 41.8118 58.1799C41.6824 58.3954 41.5529 58.654 41.4666 58.8694C40.3448 61.1966 39.7839 63.3945 39.4387 64.9459C39.1367 66.4974 39.0935 67.4886 39.3956 67.5748C39.6544 67.661 40.0859 66.756 40.6037 65.2907C41.1646 63.8255 41.8549 61.7568 42.9336 59.6452C43.0631 59.4297 43.1494 59.2142 43.2788 58.9987C43.4082 58.7832 43.4945 58.6109 43.624 58.3954C44.228 57.3611 44.8752 56.3699 45.4793 55.5941C46.0834 54.7753 46.6874 54.1289 47.2483 53.6548C48.3702 52.5343 49.2763 52.2758 49.2331 52.0172Z" fill="#8E9BAE"/>
<path d="M26.8405 45.4229C26.8405 45.2937 26.5385 45.1644 26.0639 45.2506C25.5893 45.2937 24.8989 45.5091 24.1654 45.9832C23.4319 46.4142 22.6553 47.1037 21.9218 47.9656C21.1882 48.8275 20.4979 49.7756 19.8075 50.8961C19.6781 51.1116 19.5487 51.3271 19.4192 51.5857C19.2898 51.8011 19.1603 52.0597 19.074 52.2752C17.9522 54.6024 17.3913 56.8003 17.0461 58.3517C16.7441 59.9032 16.7009 60.8944 17.003 60.9806C17.2619 61.0667 17.6933 60.1617 18.2111 58.6965C18.772 57.2312 19.4624 55.1626 20.541 53.0509C20.6705 52.8354 20.7568 52.62 20.8862 52.4045C21.0157 52.189 21.102 51.9735 21.2314 51.8011C21.8355 50.7668 22.4827 49.7756 23.0867 48.9999C23.6908 48.1811 24.2948 47.5346 24.8558 47.0606C25.9776 45.9401 26.8837 45.6815 26.8405 45.4229Z" fill="#8E9BAE"/>
<path d="M39.1803 68.005C39.3529 67.4448 34.9518 65.9364 29.2133 64.2557C28.9112 64.1695 28.6524 64.0833 28.3503 63.9971C28.0483 63.9109 27.7894 63.8247 27.4874 63.7385C21.7057 62.1009 17.2184 61.0235 17.0458 61.5837C16.9163 62.0578 21.2742 63.6092 27.0128 65.3331C27.3148 65.4193 27.5737 65.5055 27.8757 65.5917C28.1777 65.6778 28.4366 65.764 28.7387 65.8502C34.5204 67.4879 39.0508 68.4791 39.1803 68.005Z" fill="#8E9BAE"/>
<path d="M7.71919 11.5929C7.58975 11.5498 7.28772 12.4117 7.02884 13.9631C6.89939 14.7388 6.72681 15.7301 6.68366 16.8936C6.64051 18.0572 6.64051 19.3932 6.98569 20.8585C7.33087 22.3237 8.06437 23.9614 9.40193 25.2542C10.7826 26.5471 12.638 27.409 14.709 27.6245C15.7446 27.7107 16.8664 27.6245 17.9019 27.3659C18.9806 27.0643 20.0593 26.5471 20.9222 25.7283C21.8283 24.9095 22.4755 23.789 22.7344 22.4961C22.9501 21.2463 22.8207 19.9104 22.2598 18.7468C21.8283 17.7987 21.138 16.9367 20.2319 16.3334C19.7572 16.0317 19.2395 15.8162 18.6354 15.7301C18.0314 15.6439 17.3842 15.7731 16.8664 16.0317C15.6151 16.6351 14.7522 17.7125 14.2776 18.8761C13.8029 20.0396 13.6735 21.2894 13.8029 22.453C13.8461 23.0564 13.9755 23.6166 14.1913 24.1768C14.3639 24.7371 14.6227 25.2111 14.8816 25.6852C15.3994 26.6333 16.0897 27.4521 16.7801 28.1848C18.1608 29.65 19.671 30.7274 21.0948 31.7617C22.5187 32.7529 23.8994 33.5717 25.1506 34.2613C27.6963 35.6403 29.8968 36.4592 31.4501 36.9332C33.0034 37.4073 33.8664 37.5366 33.9095 37.4073C33.9527 37.278 33.1329 36.9332 31.709 36.2868C30.2852 35.6403 28.2141 34.6922 25.7547 33.227C24.5466 32.4943 23.2522 31.6324 21.9146 30.6412C20.577 29.65 19.1532 28.5295 17.9019 27.1505C17.2979 26.4609 16.7369 25.7283 16.2623 24.9095C15.8309 24.0907 15.4857 23.2287 15.4425 22.2806C15.3562 21.3325 15.4857 20.3844 15.8309 19.5225C16.176 18.6606 16.8664 17.9279 17.643 17.5401C17.9451 17.4108 18.2039 17.3677 18.506 17.3677C18.808 17.4108 19.11 17.5401 19.4121 17.7125C20.0161 18.1003 20.4907 18.7037 20.8359 19.3932C21.2242 20.2551 21.3537 21.2463 21.1811 22.1513C21.0085 23.0564 20.577 23.8752 19.8867 24.4785C19.2395 25.0819 18.3765 25.5128 17.5136 25.7714C16.6507 26.03 15.7446 26.1162 14.8385 26.03C13.1126 25.9007 11.473 25.168 10.308 24.1768C9.14305 23.1425 8.45269 21.8066 8.10751 20.5137C7.71919 19.2208 7.6329 17.9279 7.58975 16.8505C7.5466 15.7301 7.6329 14.7819 7.6329 14.0062C7.80549 12.4548 7.84863 11.5929 7.71919 11.5929Z" fill="#8E9BAE"/>
<path d="M64.3335 81.0195C63.7726 81.0195 63.5568 82.0538 63.5137 83.3467C63.5137 83.4329 63.5137 83.476 63.5137 83.5622C63.5137 83.6484 63.5137 83.6915 63.5137 83.7777C63.5568 85.1136 63.7726 86.1048 64.3335 86.1048C64.8512 86.1048 65.1101 85.0705 65.1533 83.7777C65.1533 83.6915 65.1533 83.6484 65.1533 83.5622C65.1533 83.476 65.1533 83.4329 65.1533 83.3467C65.1101 82.0538 64.8512 81.0195 64.3335 81.0195Z" fill="#8E9BAE"/>
<path d="M76.3691 38.4848C76.1966 37.9245 75.1179 38.0107 73.7803 38.3555C73.694 38.3555 73.6509 38.3986 73.5646 38.3986C73.4783 38.3986 73.4351 38.4417 73.3488 38.4417C72.0113 38.8295 71.062 39.3467 71.1915 39.9069C71.3209 40.4241 72.4428 40.381 73.7803 40.0362C73.8666 40.0362 73.9098 39.9931 73.9961 39.9931C74.0824 39.9931 74.1255 39.95 74.2118 39.95C75.5494 39.5191 76.4986 38.9588 76.3691 38.4848Z" fill="#8E9BAE"/>
<path d="M76.6716 40.2945C76.5422 39.7343 75.9812 39.6481 75.2477 39.7343C75.2046 39.7343 75.1615 39.7343 75.1615 39.7774C75.1183 39.7774 75.0752 39.7774 75.0752 39.7774C74.3848 39.9497 73.867 40.2945 73.9965 40.8548C74.0828 41.3719 74.6868 41.5012 75.4203 41.415C75.4635 41.415 75.5066 41.415 75.5066 41.3719C75.5498 41.3719 75.5929 41.3719 75.5929 41.3719C76.2833 41.1564 76.7579 40.8117 76.6716 40.2945Z" fill="#8E9BAE"/>
<path d="M62.7738 28.5718C62.558 28.7442 62.4286 28.9596 62.256 29.0889C62.1697 29.132 62.0834 29.2182 61.954 29.2613C61.9108 29.2613 61.8677 29.3044 61.8245 29.2613C61.8245 29.3044 61.8245 29.3475 61.7814 29.3906C61.7814 29.4337 61.7382 29.4337 61.7382 29.4337C61.7382 29.4337 61.7382 29.4337 61.7814 29.4337C61.8677 29.3906 61.9971 29.3475 61.954 29.3475V29.3044C61.954 29.2613 61.954 29.1751 61.954 29.132C61.954 29.0027 61.9971 28.9165 62.0403 28.8304C62.1266 28.7442 62.1697 28.658 62.2129 28.5718C62.2992 28.4856 62.3855 28.3994 62.4717 28.2701C62.5149 28.1408 62.5149 28.0115 62.3423 27.8822C62.1697 27.753 61.8677 27.6668 61.5225 27.753C61.1773 27.8391 60.789 28.0977 60.5301 28.4856C60.4007 28.7011 60.3144 28.9165 60.3144 29.2182C60.2712 29.4768 60.3144 29.7785 60.487 30.1663C60.5733 30.2956 60.6596 30.4249 60.789 30.5542C60.9184 30.6835 61.0479 30.7697 61.1773 30.8128C61.9108 31.1144 62.558 30.8128 62.8601 30.5111C63.2052 30.2094 63.3778 29.7785 63.421 29.4337C63.421 29.0889 63.2915 28.8304 63.1621 28.7011C63.0327 28.5287 62.9032 28.4856 62.7738 28.5718Z" fill="#6F2FCE"/>
<path d="M63.2481 28.2286C62.9892 28.3579 63.0323 28.7889 62.7734 29.1767C62.644 29.3491 62.4714 29.5646 62.2125 29.737C61.9536 29.9094 61.6948 29.9094 61.5653 29.8232C61.5222 29.8232 61.5222 29.8232 61.5222 29.7801C61.5222 29.7801 61.5222 29.7801 61.479 29.737C61.4359 29.6939 61.3927 29.5646 61.3927 29.3922C61.3927 29.2629 61.4359 29.0905 61.479 28.9612C61.5653 28.7027 61.7379 28.4872 61.9105 28.3148C62.0831 28.1424 62.2557 28.0562 62.3851 27.97C62.5146 27.8838 62.6871 27.8408 62.7303 27.7115C62.7734 27.5822 62.7303 27.4098 62.5146 27.2805C62.2988 27.1081 61.8673 27.065 61.3927 27.1943C60.9181 27.3236 60.4003 27.7115 60.0983 28.2717C59.9257 28.5734 59.8394 28.8751 59.7963 29.2629C59.7531 29.6077 59.7963 30.0386 60.012 30.4696C60.0983 30.642 60.2278 30.8144 60.4003 30.9437C60.5298 31.0729 60.7024 31.2022 60.875 31.2884C61.7811 31.6763 62.644 31.2884 63.1186 30.9006C63.5932 30.4696 63.8521 29.9094 63.8953 29.4353C63.9384 28.9612 63.809 28.5734 63.6364 28.401C63.5069 28.1855 63.3344 28.1424 63.2481 28.2286Z" fill="#6F2FCE"/>
<path d="M61.0954 25.7721C61.0522 25.7721 60.9659 26.2031 60.9228 26.9357C60.8796 27.3236 60.8796 27.7976 60.8796 28.3579C60.8796 28.6164 60.8796 28.9181 60.8365 29.2629C60.8365 29.4784 60.7933 29.8231 60.8796 29.9524C60.8796 29.9955 60.9228 30.0386 60.9659 30.0817C61.0091 30.1248 61.0522 30.1679 61.0954 30.1679C61.1817 30.1679 61.2679 30.1679 61.3974 30.1248C61.6563 29.9955 61.9583 29.8662 62.2172 29.7369C62.3466 29.6938 62.4329 29.6076 62.5624 29.5645C62.6487 29.5214 62.7781 29.4784 62.8644 29.3922C62.9507 29.306 62.9938 29.2198 62.9938 29.0905C62.9938 28.0562 63.037 26.8926 63.037 25.5997C63.037 24.3499 63.037 23.014 63.0801 21.6349C63.0801 18.7906 63.0801 15.6446 63.0801 12.2831C63.0801 11.6367 63.0801 10.9902 63.0801 10.3438C63.0801 9.69735 63.0801 9.05091 63.0801 8.40447C63.0801 8.01661 63.0801 7.58565 63.0801 7.19779C63.0801 6.93921 63.0801 6.68064 63.0801 6.37897C63.0801 6.29278 63.037 6.20658 63.037 6.12039C62.9938 6.0773 62.9938 6.0342 62.9075 5.94801C62.8212 5.90491 62.7781 5.86182 62.7349 5.86182C62.6487 5.86182 62.5624 5.86182 62.4761 5.86182C62.0014 5.9911 61.57 6.12039 61.0954 6.24968C61.0091 6.29277 60.9228 6.33587 60.8796 6.37897C60.8365 6.42206 60.7933 6.50825 60.7502 6.55135C60.707 6.63754 60.707 6.72373 60.707 6.80993V7.0254C60.707 7.19779 60.707 7.37017 60.707 7.54256C60.707 8.23209 60.707 8.92162 60.707 9.61116C60.707 10.9471 60.707 12.2831 60.7502 13.4898C60.7933 15.9462 60.7933 18.1441 60.8365 19.9542C60.8796 23.5742 60.9659 25.7721 61.0954 25.7721C61.2248 25.7721 61.3111 23.6173 61.3974 19.9542C61.4405 18.1441 61.4405 15.9462 61.4837 13.4898C61.4837 12.24 61.4837 10.9471 61.5268 9.61116C61.5268 8.92162 61.5268 8.23209 61.5268 7.54256C61.5268 7.37017 61.5268 7.19779 61.5268 7.0254V6.98231C61.7857 6.93921 62.0014 6.85302 62.2603 6.80993C62.2603 6.46516 62.2603 7.67184 62.2603 8.44757C62.2603 9.09401 62.2603 9.74044 62.2603 10.3869C62.2603 11.0333 62.2603 11.6798 62.2603 12.3262C62.3035 15.6877 62.3035 18.8337 62.3035 21.678C62.3035 23.1002 62.3466 24.4361 62.3466 25.6428C62.3466 26.8495 62.3898 27.97 62.3898 28.9612C62.3898 29.0043 62.3466 29.0474 62.3035 29.0474C62.174 29.0905 62.0877 29.1767 61.9583 29.2198C61.8289 29.2629 61.7426 29.3491 61.6131 29.3922L61.4837 29.4353L61.4405 29.4784L61.3542 29.5214C61.3111 29.5645 61.2679 29.4784 61.3111 29.4784C61.3111 29.3922 61.3111 29.306 61.3111 29.2629C61.3111 28.9612 61.3111 28.6595 61.2679 28.3579C61.2248 27.7976 61.2248 27.3236 61.2248 26.9357C61.2248 26.16 61.1385 25.7721 61.0954 25.7721Z" fill="#6F2FCE"/>
<path d="M62.9062 10.4722L67.5661 6.76596L62.9062 5.99023V10.4722Z" fill="#8E9BAE"/>
<path d="M25.455 60.204C25.8002 59.7731 25.0235 58.8681 23.6428 58.3078C23.5565 58.2647 23.5134 58.2647 23.4271 58.2216C23.3408 58.1785 23.2976 58.1785 23.2113 58.1354C21.8306 57.7045 20.6657 57.8338 20.6225 58.394C20.5794 58.9112 21.5286 59.2559 22.6936 59.6869L22.8662 59.73L23.0388 59.8162C24.2469 60.2471 25.153 60.5919 25.455 60.204Z" fill="#8E9BAE"/>
<path d="M42.8877 63.2215C43.4055 63.437 44.2253 61.8855 45.2608 59.9893C45.304 59.9031 45.3471 59.7738 45.4334 59.6876C45.4766 59.6015 45.5197 59.5153 45.606 59.386C46.1238 58.3948 46.5552 57.5759 46.9004 57.0157C47.2024 56.4555 47.4613 56.0676 47.2887 55.809C47.1593 55.5935 46.6415 55.7228 45.9943 56.1969C45.3471 56.6709 44.7431 57.5759 44.1821 58.5671C44.139 58.6533 44.0958 58.7826 44.0095 58.8688C43.9664 58.955 43.9233 59.0843 43.837 59.1705C42.7151 61.2822 42.37 63.0491 42.8877 63.2215Z" fill="#8E9BAE"/>
</g>
<defs>
<clipPath id="clip0_10897_1636">
<rect width="92.939" height="98" fill="white"/>
</clipPath>
</defs>
</svg>
