<svg width="105" height="104" viewBox="0 0 105 104" fill="none" xmlns="http://www.w3.org/2000/svg">
<rect x="1.16016" y="1" width="102" height="102" rx="51" fill="#6F2FCE"/>
<rect x="1.16016" y="1" width="102" height="102" rx="51" stroke="#292929" stroke-width="2"/>
<path d="M51.6289 22C45.6028 22 39.7119 23.787 34.7014 27.1349C29.6908 30.4829 25.7856 35.2414 23.4795 40.8089C21.1734 46.3763 20.57 52.5026 21.7456 58.4129C22.9213 64.3233 25.8231 69.7523 30.0843 74.0134C34.3454 78.2745 39.7744 81.1764 45.6848 82.3521C51.5951 83.5277 57.7214 82.9243 63.2888 80.6182C68.8562 78.3121 73.6148 74.4068 76.9628 69.3963C80.3107 64.3857 82.0977 58.4949 82.0977 52.4688C82.0891 44.3906 78.8763 36.6457 73.1642 30.9335C67.452 25.2214 59.7071 22.0085 51.6289 22ZM51.6289 26.6875C54.0166 26.6875 58.6602 35.7871 58.6602 52.4688C58.6602 54.8828 58.5606 57.1328 58.3877 59.2275C56.293 59.4004 54.043 59.5 51.6289 59.5C34.9473 59.5 25.8477 54.8564 25.8477 52.4688C25.8554 45.6335 28.5741 39.0805 33.4074 34.2472C38.2406 29.414 44.7937 26.6953 51.6289 26.6875ZM26.8438 59.5762C32.668 62.6201 42.1836 64.1875 51.6289 64.1875C53.7061 64.1875 55.7861 64.1113 57.8311 63.9619C56.3838 73.2695 53.3867 78.25 51.6289 78.25C46.0323 78.2425 40.5895 76.4176 36.1196 73.0498C31.6497 69.6821 28.3945 64.9537 26.8438 59.5762Z" fill="white"/>
</svg>
