<svg width="26" height="26" viewBox="0 0 26 26" fill="none" xmlns="http://www.w3.org/2000/svg">
<path d="M12.9974 10.8337C15.3906 10.8337 17.3307 8.89356 17.3307 6.50033C17.3307 4.10709 15.3906 2.16699 12.9974 2.16699C10.6042 2.16699 8.66406 4.10709 8.66406 6.50033C8.66406 8.89356 10.6042 10.8337 12.9974 10.8337Z" stroke="#8E9BAE" stroke-width="2"/>
<path d="M19.5 9.75065C21.2951 9.75065 22.75 8.53732 22.75 7.04232C22.75 5.54732 21.2951 4.33398 19.5 4.33398M6.5 9.75065C4.70492 9.75065 3.25 8.53732 3.25 7.04232C3.25 5.54732 4.70492 4.33398 6.5 4.33398" stroke="#8E9BAE" stroke-width="2" stroke-linecap="round"/>
<path d="M13 22.7507C16.5899 22.7507 19.5 20.8106 19.5 18.4173C19.5 16.0241 16.5899 14.084 13 14.084C9.41015 14.084 6.5 16.0241 6.5 18.4173C6.5 20.8106 9.41015 22.7507 13 22.7507Z" stroke="#8E9BAE" stroke-width="2"/>
<path d="M21.6654 20.5837C23.5655 20.1666 24.9154 19.1114 24.9154 17.8753C24.9154 16.6392 23.5655 15.5841 21.6654 15.167M4.33203 20.5837C2.43186 20.1666 1.08203 19.1114 1.08203 17.8753C1.08203 16.6392 2.43186 15.5841 4.33203 15.167" stroke="#8E9BAE" stroke-width="2" stroke-linecap="round"/>
</svg>
