<svg width="26" height="26" viewBox="0 0 26 26" fill="none" xmlns="http://www.w3.org/2000/svg">
<path d="M6.5 10.8335H10.8333" stroke="#8E9BAE" stroke-width="2" stroke-linecap="round" stroke-linejoin="round"/>
<path d="M22.5691 11.9165H19.7503C17.8165 11.9165 16.25 13.3714 16.25 15.1665C16.25 16.9616 17.8176 18.4165 19.7492 18.4165H22.5691C22.6601 18.4165 22.7045 18.4165 22.7424 18.4143C23.3274 18.3786 23.7932 17.9463 23.8312 17.4036C23.8333 17.3689 23.8333 17.3267 23.8333 17.2433V13.0898C23.8333 13.0063 23.8333 12.9641 23.8312 12.9294C23.7922 12.3867 23.3274 11.9544 22.7424 11.9187C22.7045 11.9165 22.6601 11.9165 22.5691 11.9165Z" stroke="#8E9BAE" stroke-width="2"/>
<path d="M22.7114 11.9167C22.6269 9.88867 22.3561 8.645 21.4797 7.76967C20.2111 6.5 18.1679 6.5 14.0827 6.5H10.8327C6.74743 6.5 4.70427 6.5 3.43568 7.76967C2.1671 9.03933 2.16602 11.0814 2.16602 15.1667C2.16602 19.2519 2.16602 21.2951 3.43568 22.5637C4.70535 23.8322 6.74743 23.8333 10.8327 23.8333H14.0827C18.1679 23.8333 20.2111 23.8333 21.4797 22.5637C22.3561 21.6883 22.628 20.4447 22.7114 18.4167" stroke="#8E9BAE" stroke-width="2"/>
<path d="M6.5 6.49994L10.5462 3.81653C11.1154 3.44679 11.7796 3.25 12.4583 3.25C13.1371 3.25 13.8012 3.44679 14.3704 3.81653L18.4167 6.49994" stroke="#8E9BAE" stroke-width="2" stroke-linecap="round"/>
<path d="M19.4902 15.1665H19.5011" stroke="#8E9BAE" stroke-width="2" stroke-linecap="round" stroke-linejoin="round"/>
</svg>
